<?xml version="1.0" encoding="utf-8"?>
<!-- Generator: Adobe Illustrator 16.0.0, SVG Export Plug-In . SVG Version: 6.00 Build 0)  -->
<!DOCTYPE svg PUBLIC "-//W3C//DTD SVG 1.1//EN" "http://www.w3.org/Graphics/SVG/1.1/DTD/svg11.dtd">
<svg version="1.1" id="Capa_1" xmlns="http://www.w3.org/2000/svg" xmlns:xlink="http://www.w3.org/1999/xlink" x="0px" y="0px"
	 width="552.756px" height="340.158px" viewBox="0 0 552.756 340.158" enable-background="new 0 0 552.756 340.158"
	 xml:space="preserve">
<g>
	<g>
		<path fill="#1173A8" stroke="#1173A8" stroke-width="0.987" stroke-miterlimit="10" d="M223.062,303.646
			c0,0.389-0.166,0.993-0.497,1.816c-0.16,0.399-0.314,0.748-0.462,1.044c-0.148,0.298-0.297,0.548-0.446,0.754
			c-0.811,1.154-2.135,2.353-3.974,3.598c-1.85,1.244-3.694,2.335-5.533,3.271c-1.21,0.628-2.418,1.19-3.623,1.688
			c-1.205,0.496-2.418,0.938-3.64,1.327c-0.069,0.092-0.103,0.314-0.103,0.668v0.565c0,0.319,0.017,0.763,0.051,1.328
			s0.08,1.258,0.137,2.081c0.057,0.822,0.103,1.55,0.137,2.184s0.052,1.19,0.052,1.671c0,0.433-0.132,0.776-0.395,1.026
			c-0.262,0.252-0.611,0.378-1.044,0.378c-1.256,0-1.884-2.724-1.884-8.171v-0.497c0-0.64,0.04-1.33,0.12-2.072
			c0.08-0.743,0.188-1.639,0.326-2.689c0.057-0.331,0.111-0.674,0.163-1.027c0.051-0.354,0.105-0.731,0.162-1.131
			c0.114-0.788,0.223-1.467,0.326-2.038c0.103-0.571,0.229-1.126,0.377-1.662c0.034-0.148,0.074-0.325,0.12-0.531
			c0.046-0.205,0.097-0.439,0.154-0.702c0.114-0.525,0.234-0.987,0.36-1.388c0.125-0.388,0.285-0.765,0.479-1.13
			s0.44-0.708,0.737-1.028c0.182-0.068,0.382-0.103,0.599-0.103c0.422,0,0.74,0.128,0.951,0.385
			c0.211,0.258,0.317,0.609,0.317,1.055c0,0.057-0.043,0.23-0.129,0.521s-0.183,0.603-0.291,0.934
			c-0.108,0.332-0.211,0.646-0.308,0.942c-0.098,0.297-0.158,0.479-0.18,0.548c-0.092,0.24-0.177,0.565-0.257,0.977
			c-0.058,0.331-0.117,0.671-0.18,1.02c-0.063,0.349-0.128,0.717-0.197,1.104c-0.068,0.377-0.128,0.757-0.18,1.14
			c-0.052,0.383-0.094,0.748-0.129,1.096c-0.034,0.349-0.065,0.674-0.094,0.977c-0.029,0.303-0.049,0.563-0.06,0.779
			c0.365-0.159,0.808-0.349,1.328-0.565c0.519-0.216,1.122-0.468,1.807-0.753c1.347-0.561,2.546-1.091,3.597-1.594
			c1.062-0.502,2.095-1.056,3.1-1.662c0.663-0.399,1.305-0.85,1.927-1.353c0.622-0.502,1.23-1.051,1.824-1.645
			c1.188-1.211,1.782-2.335,1.782-3.374c0-0.48-0.469-0.846-1.405-1.097c-0.468-0.125-0.942-0.226-1.422-0.3
			c-0.479-0.074-0.954-0.131-1.422-0.172c-0.468-0.039-0.922-0.064-1.362-0.077c-0.439-0.011-0.848-0.017-1.225-0.017
			c-2.25,0-4.636,0.245-7.16,0.736c-1.222,0.263-2.952,0.777-5.19,1.543c-0.263,0.103-0.463,0.153-0.6,0.153
			c-0.251,0-0.46-0.077-0.625-0.23c-0.166-0.154-0.248-0.357-0.248-0.609c0-0.559,0.163-1.011,0.488-1.353
			c0.325-0.343,0.796-0.646,1.413-0.908c0.662-0.285,1.69-0.576,3.083-0.874c0.697-0.147,1.396-0.276,2.099-0.386
			c0.702-0.107,1.413-0.207,2.133-0.299c1.439-0.172,2.518-0.257,3.237-0.257c0.617,0,1.213,0.005,1.79,0.018
			c0.576,0.011,1.142,0.036,1.696,0.077c0.554,0.039,1.107,0.103,1.662,0.188c0.553,0.086,1.116,0.197,1.687,0.334
			c1.142,0.274,2.101,0.72,2.878,1.336C222.673,301.82,223.062,302.63,223.062,303.646z"/>
		<path fill="#1173A8" stroke="#1173A8" stroke-width="0.987" stroke-miterlimit="10" d="M252.027,318.036
			c0,0.205-0.074,0.428-0.223,0.667c-0.148,0.24-0.331,0.475-0.548,0.702c-0.217,0.229-0.454,0.439-0.711,0.635
			c-0.257,0.194-0.494,0.359-0.711,0.496c-1.176,0.72-2.347,1.291-3.512,1.713c-1.165,0.423-2.335,0.634-3.511,0.634
			c-1.257,0-2.247-0.333-2.972-1.002c-0.726-0.668-1.139-1.767-1.242-3.297c-0.411,0.491-0.882,1.019-1.414,1.584
			c-0.531,0.565-1.104,1.116-1.721,1.652c-0.617,0.537-1.259,1.046-1.927,1.525s-1.339,0.879-2.012,1.198
			c-0.161,0.069-0.377,0.149-0.651,0.241c-0.274,0.091-0.563,0.176-0.865,0.257c-0.303,0.079-0.591,0.145-0.865,0.196
			s-0.491,0.077-0.651,0.077c-0.514,0-0.954-0.119-1.319-0.36c-0.365-0.239-0.665-0.541-0.899-0.907
			c-0.234-0.365-0.409-0.765-0.522-1.199c-0.114-0.435-0.171-0.845-0.171-1.232c0-0.354,0.028-0.757,0.085-1.208
			s0.129-0.919,0.214-1.405c0.085-0.485,0.186-0.979,0.3-1.481c0.114-0.502,0.234-0.994,0.359-1.473
			c0.286-1.006,0.551-1.971,0.797-2.896c0.245-0.925,0.482-1.873,0.711-2.843c0.125-0.549,0.348-0.945,0.668-1.191
			c0.319-0.245,0.662-0.367,1.027-0.367c0.457,0,0.823,0.162,1.097,0.488c0.274,0.324,0.411,0.728,0.411,1.207
			c0,0.217-0.04,0.46-0.12,0.728c-0.08,0.27-0.177,0.537-0.291,0.806c-0.114,0.269-0.234,0.521-0.36,0.763
			c-0.125,0.239-0.229,0.439-0.309,0.599c-0.217,0.503-0.439,1.082-0.667,1.739c-0.229,0.656-0.434,1.319-0.617,1.986
			c-0.183,0.668-0.331,1.308-0.445,1.919c-0.114,0.611-0.171,1.128-0.171,1.55c0,0.206,0.028,0.417,0.085,0.634
			c0.057,0.218,0.134,0.418,0.231,0.601c0.097,0.183,0.208,0.333,0.334,0.453c0.125,0.12,0.257,0.18,0.394,0.18
			c0.434,0,0.917-0.097,1.448-0.291c0.531-0.194,1.073-0.46,1.627-0.797c0.554-0.337,1.111-0.728,1.67-1.173
			s1.091-0.919,1.593-1.422c0.502-0.502,0.965-1.021,1.388-1.559c0.422-0.537,0.776-1.057,1.062-1.559
			c0.148-0.263,0.276-0.558,0.385-0.883s0.208-0.661,0.3-1.011c0.091-0.348,0.191-0.702,0.3-1.062
			c0.108-0.36,0.237-0.711,0.385-1.054c0.103-0.206,0.206-0.426,0.308-0.659c0.103-0.234,0.217-0.455,0.342-0.659
			c0.126-0.206,0.263-0.377,0.412-0.515c0.148-0.138,0.319-0.205,0.514-0.205c0.251,0,0.471,0.054,0.659,0.162
			s0.345,0.234,0.471,0.378c0.125,0.142,0.22,0.291,0.283,0.445c0.063,0.153,0.094,0.271,0.094,0.351c0,0.138-0.04,0.352-0.12,0.643
			c-0.08,0.291-0.18,0.631-0.3,1.019c-0.12,0.389-0.249,0.805-0.385,1.251c-0.137,0.445-0.266,0.88-0.386,1.302
			c-0.12,0.423-0.22,0.821-0.3,1.199c-0.08,0.376-0.12,0.696-0.12,0.959c0,0.571,0.063,1.051,0.188,1.438
			c0.126,0.389,0.314,0.699,0.565,0.934s0.565,0.403,0.942,0.506c0.377,0.103,0.817,0.154,1.319,0.154
			c0.548,0,1.099-0.063,1.653-0.189c0.553-0.125,1.11-0.294,1.669-0.505c0.56-0.211,1.125-0.46,1.696-0.745
			c0.571-0.285,1.142-0.582,1.713-0.891c0.228-0.126,0.405-0.245,0.531-0.359s0.246-0.172,0.36-0.172
			c0.148,0,0.26,0.058,0.334,0.172S252.027,317.864,252.027,318.036z"/>
		<path fill="#1173A8" stroke="#1173A8" stroke-width="0.987" stroke-miterlimit="10" d="M272.223,311.954
			c0,0.183-0.125,0.485-0.377,0.908c-0.457,0.73-1.025,1.52-1.704,2.363c-0.68,0.846-1.433,1.694-2.261,2.544
			c-0.828,0.851-1.707,1.671-2.638,2.458c-0.931,0.788-1.876,1.482-2.835,2.081c-0.958,0.6-1.907,1.083-2.843,1.448
			s-1.827,0.548-2.672,0.548h-0.12c-1.953,0-3.415-0.56-4.385-1.678c-0.971-1.12-1.456-2.679-1.456-4.678
			c0-0.798,0.063-1.644,0.188-2.534c0.125-0.892,0.346-1.797,0.66-2.716c0.314-0.918,0.742-1.838,1.285-2.757
			c0.542-0.92,1.23-1.808,2.064-2.664c0.628-0.628,1.291-1.111,1.987-1.448c0.697-0.337,1.354-0.505,1.97-0.505
			c0.091,0,0.211,0.023,0.36,0.068c0.148,0.046,0.299,0.106,0.454,0.18c0.154,0.074,0.303,0.166,0.445,0.274
			s0.266,0.227,0.369,0.351c0.319,0.412,0.554,0.806,0.702,1.183s0.223,0.817,0.223,1.319c0,0.662-0.091,1.265-0.274,1.807
			s-0.445,1.071-0.788,1.585c-0.342,0.514-0.765,1.03-1.268,1.55c-0.503,0.52-1.079,1.082-1.73,1.688
			c-0.217,0.205-0.474,0.434-0.771,0.686c-0.297,0.25-0.617,0.513-0.959,0.787c-0.343,0.274-0.697,0.561-1.062,0.856
			c-0.366,0.298-0.726,0.589-1.079,0.874c0.091,2.045,1.227,3.066,3.408,3.066c1.21,0,2.501-0.319,3.872-0.959
			c0.674-0.32,1.302-0.688,1.884-1.105s1.153-0.842,1.713-1.276c0.274-0.217,0.576-0.474,0.908-0.771
			c0.331-0.297,0.671-0.611,1.02-0.942c0.348-0.331,0.696-0.662,1.044-0.993c0.349-0.331,0.677-0.646,0.985-0.941
			c0.194-0.195,0.402-0.4,0.625-0.617s0.46-0.452,0.711-0.702l0.925-0.926c0.56-0.491,0.965-0.736,1.216-0.736
			C272.154,311.628,272.223,311.737,272.223,311.954z M259.033,309.384c0-0.342-0.091-0.643-0.274-0.898
			c-0.183-0.257-0.405-0.386-0.668-0.386c-0.194,0-0.443,0.08-0.745,0.239c-0.303,0.16-0.625,0.445-0.968,0.856
			c-0.697,0.846-1.291,1.865-1.782,3.059c-0.491,1.193-0.833,2.521-1.027,3.981c0.72-0.582,1.327-1.102,1.824-1.559
			c0.497-0.456,0.945-0.885,1.344-1.284c0.275-0.274,0.545-0.565,0.814-0.874c0.268-0.309,0.514-0.633,0.737-0.977
			c0.223-0.343,0.402-0.695,0.539-1.063C258.964,310.115,259.033,309.75,259.033,309.384z"/>
		<path fill="#1173A8" stroke="#1173A8" stroke-width="0.987" stroke-miterlimit="10" d="M299.082,312.623
			c0,0.216-0.038,0.437-0.111,0.658c-0.074,0.224-0.166,0.446-0.274,0.669s-0.231,0.439-0.368,0.65
			c-0.137,0.212-0.27,0.414-0.394,0.608c-0.332,0.514-0.72,1.037-1.165,1.567c-0.445,0.531-0.923,1.048-1.431,1.551
			c-0.509,0.502-1.03,0.976-1.567,1.422c-0.537,0.445-1.063,0.839-1.575,1.182c-0.412,0.274-0.804,0.531-1.175,0.771
			c-0.37,0.239-0.744,0.445-1.121,0.617c-0.377,0.171-0.771,0.309-1.182,0.41c-0.412,0.103-0.863,0.154-1.354,0.154
			c-0.948,0-1.719-0.239-2.313-0.719c-0.297-0.24-0.556-0.551-0.779-0.934c-0.223-0.383-0.417-0.808-0.583-1.276
			c-0.165-0.468-0.308-0.966-0.428-1.49c-0.12-0.525-0.22-1.045-0.3-1.559c-0.103-0.641-0.2-1.214-0.291-1.722
			c-0.091-0.509-0.197-0.937-0.316-1.285c-0.121-0.348-0.266-0.617-0.437-0.805c-0.171-0.188-0.395-0.283-0.668-0.283
			c-0.217,0-0.422,0.023-0.616,0.069c-0.195,0.046-0.397,0.137-0.608,0.273c-0.211,0.138-0.443,0.331-0.694,0.583
			c-0.251,0.251-0.545,0.582-0.882,0.993s-0.722,0.914-1.156,1.507c-0.434,0.594-0.941,1.302-1.524,2.124
			c-0.286,0.4-0.623,0.84-1.011,1.319c-0.388,0.479-0.786,0.937-1.191,1.371c-0.405,0.434-0.802,0.815-1.19,1.147
			c-0.388,0.331-0.73,0.542-1.028,0.633c-1.004-0.217-1.507-1.467-1.507-3.751c0-0.604,0.068-1.524,0.206-2.757
			c0.068-0.561,0.148-1.146,0.239-1.757c0.091-0.61,0.206-1.222,0.343-1.833c0.137-0.61,0.294-1.204,0.471-1.78
			c0.177-0.577,0.385-1.111,0.625-1.603c0.114-0.229,0.234-0.408,0.36-0.539c0.125-0.132,0.254-0.229,0.386-0.291
			c0.131-0.063,0.268-0.104,0.411-0.12s0.288-0.026,0.437-0.026c0.183,0,0.345,0.126,0.488,0.378
			c0.142,0.251,0.214,0.599,0.214,1.044c0,0.274-0.023,0.532-0.068,0.771c-0.046,0.239-0.109,0.485-0.188,0.736
			c-0.08,0.251-0.166,0.522-0.257,0.813c-0.092,0.291-0.183,0.626-0.274,1.002c-0.068,0.309-0.146,0.651-0.231,1.028
			c-0.086,0.376-0.166,0.759-0.24,1.147c-0.075,0.388-0.137,0.769-0.188,1.139c-0.051,0.371-0.077,0.705-0.077,1.002
			c0,0.205,0.034,0.418,0.103,0.634c0.319-0.033,0.845-0.514,1.576-1.438c0.377-0.468,0.791-0.981,1.242-1.542
			c0.451-0.559,0.939-1.176,1.464-1.85c0.388-0.503,0.773-0.97,1.156-1.404c0.382-0.435,0.779-0.814,1.19-1.14
			s0.848-0.582,1.311-0.771c0.462-0.188,0.973-0.283,1.533-0.283c0.593,0,1.087,0.129,1.481,0.386
			c0.394,0.257,0.711,0.611,0.951,1.063c0.24,0.45,0.425,0.99,0.557,1.618c0.131,0.629,0.237,1.319,0.317,2.072
			c0.068,0.641,0.134,1.273,0.197,1.901c0.063,0.629,0.185,1.19,0.368,1.688c0.183,0.497,0.445,0.899,0.788,1.208
			c0.343,0.309,0.833,0.463,1.473,0.463c0.491,0,1.005-0.114,1.542-0.343s1.102-0.545,1.695-0.951
			c0.594-0.404,1.208-0.882,1.842-1.43s1.287-1.147,1.961-1.799c0.263-0.251,0.551-0.568,0.865-0.951
			c0.313-0.383,0.622-0.75,0.925-1.104c0.303-0.354,0.585-0.656,0.849-0.908c0.263-0.251,0.474-0.376,0.633-0.376
			c0.069,0,0.181,0.033,0.335,0.103C299.005,312.347,299.082,312.462,299.082,312.623z"/>
		<path fill="#1173A8" stroke="#1173A8" stroke-width="0.987" stroke-miterlimit="10" d="M296.684,320.022
			c0-0.959,0.083-1.901,0.248-2.826s0.349-1.807,0.548-2.646c0.2-0.84,0.383-1.613,0.549-2.321c0.166-0.707,0.248-1.324,0.248-1.851
			c0-0.171-0.051-0.276-0.154-0.316c-0.103-0.04-0.239-0.06-0.411-0.06c-0.137,0-0.288,0.018-0.453,0.051
			c-0.166,0.034-0.337,0.069-0.515,0.104c-0.177,0.034-0.349,0.068-0.514,0.103s-0.312,0.052-0.437,0.052
			c-0.389,0-0.731-0.003-1.027-0.009c-0.298-0.006-0.549-0.049-0.754-0.128c-0.206-0.08-0.36-0.218-0.463-0.412
			s-0.154-0.479-0.154-0.856c0-0.159,0.055-0.293,0.163-0.402c0.108-0.108,0.246-0.196,0.411-0.266
			c0.165-0.068,0.348-0.116,0.548-0.146c0.2-0.028,0.391-0.043,0.573-0.043c0.138,0,0.346-0.015,0.626-0.043
			c0.279-0.028,0.576-0.063,0.891-0.103c0.314-0.039,0.613-0.077,0.899-0.111c0.285-0.034,0.497-0.057,0.634-0.068
			c0.183-0.012,0.36-0.105,0.53-0.283c0.172-0.176,0.32-0.386,0.445-0.625c0.126-0.239,0.231-0.484,0.318-0.736
			c0.085-0.251,0.145-0.463,0.18-0.634c0.057-0.309,0.128-0.693,0.214-1.156c0.085-0.463,0.18-0.931,0.282-1.404
			c0.104-0.474,0.214-0.926,0.334-1.354c0.12-0.429,0.243-0.768,0.368-1.02c0.137-0.273,0.297-0.481,0.479-0.625
			c0.183-0.143,0.411-0.214,0.686-0.214c0.811,0,1.217,0.439,1.217,1.319c0,0.524-0.12,1.147-0.36,1.867
			c-0.068,0.229-0.148,0.502-0.24,0.821c-0.091,0.32-0.177,0.649-0.256,0.985c-0.081,0.337-0.149,0.654-0.206,0.95
			c-0.058,0.298-0.086,0.537-0.086,0.72c0,0.399,0.205,0.6,0.617,0.6c0.49,0,0.918-0.005,1.285-0.018
			c0.365-0.011,0.725-0.033,1.078-0.068c0.354-0.034,0.74-0.086,1.156-0.153c0.417-0.069,0.928-0.166,1.533-0.292
			c0.491-0.103,0.865-0.186,1.122-0.248s0.482-0.123,0.677-0.18s0.396-0.117,0.608-0.18c0.211-0.063,0.505-0.146,0.882-0.249
			c0,0.022,0.037,0.061,0.111,0.112c0.074,0.051,0.154,0.11,0.239,0.18c0.086,0.067,0.163,0.134,0.231,0.196
			c0.069,0.063,0.103,0.111,0.103,0.146c0,0.194-0.04,0.368-0.12,0.522c-0.079,0.154-0.18,0.294-0.299,0.42
			c-0.12,0.126-0.254,0.236-0.403,0.334c-0.147,0.098-0.296,0.186-0.445,0.266c-0.73,0.32-1.538,0.57-2.423,0.753
			c-0.885,0.184-1.756,0.343-2.612,0.48c-0.571,0.091-1.086,0.171-1.542,0.239c-0.457,0.069-0.854,0.144-1.19,0.224
			s-0.619,0.168-0.848,0.266c-0.229,0.097-0.395,0.226-0.497,0.385c-0.057,0.171-0.141,0.469-0.249,0.891
			c-0.108,0.423-0.229,0.894-0.358,1.413c-0.133,0.521-0.261,1.054-0.386,1.602c-0.126,0.548-0.229,1.039-0.309,1.474
			c-0.046,0.205-0.095,0.493-0.146,0.864c-0.052,0.372-0.104,0.757-0.154,1.157c-0.052,0.399-0.091,0.776-0.12,1.13
			c-0.029,0.354-0.043,0.616-0.043,0.788c0.023,1.006,0.211,1.725,0.565,2.158c0.354,0.435,0.96,0.651,1.816,0.651
			c0.593-0.034,1.152-0.101,1.678-0.197s1.064-0.26,1.619-0.488c0.554-0.229,1.15-0.534,1.79-0.917
			c0.639-0.382,1.376-0.87,2.21-1.464c0.25-0.183,0.493-0.374,0.728-0.573c0.234-0.2,0.454-0.381,0.659-0.54
			c0.206-0.16,0.4-0.294,0.583-0.403c0.183-0.108,0.354-0.162,0.514-0.162c0.206,0,0.335,0.037,0.386,0.111
			c0.052,0.074,0.077,0.209,0.077,0.402c0,0.148-0.055,0.332-0.163,0.548c-0.108,0.218-0.257,0.452-0.445,0.702
			c-0.188,0.252-0.417,0.512-0.685,0.78c-0.27,0.269-0.558,0.521-0.866,0.763c-0.674,0.536-1.373,1.044-2.099,1.523
			c-0.725,0.48-1.461,0.899-2.209,1.26c-0.748,0.359-1.493,0.646-2.235,0.856c-0.743,0.211-1.474,0.316-2.192,0.316
			c-0.822,0-1.524-0.131-2.107-0.394c-0.582-0.263-1.056-0.614-1.421-1.054c-0.366-0.439-0.635-0.939-0.806-1.498
			C296.77,321.209,296.684,320.627,296.684,320.022z"/>
		<path fill="#1173A8" stroke="#1173A8" stroke-width="0.987" stroke-miterlimit="10" d="M327.773,316.356
			c0,0.399-0.148,0.834-0.445,1.302c-0.297,0.469-0.72,0.993-1.268,1.576c-0.628,0.662-1.319,1.276-2.072,1.842
			c-0.754,0.565-1.53,1.057-2.329,1.474c-0.8,0.416-1.61,0.744-2.433,0.984s-1.617,0.359-2.382,0.359
			c-1.792,0-3.181-0.576-4.161-1.729c-0.982-1.154-1.474-2.844-1.474-5.071c0-0.707,0.063-1.43,0.188-2.166
			c0.125-0.737,0.311-1.465,0.557-2.184c0.245-0.72,0.554-1.417,0.925-2.091c0.37-0.674,0.802-1.302,1.293-1.885
			c0.309-0.353,0.651-0.713,1.028-1.078c0.376-0.365,0.793-0.694,1.25-0.985c0.456-0.291,0.957-0.527,1.499-0.711
			c0.542-0.182,1.133-0.273,1.772-0.273c0.457,0,0.868,0.088,1.233,0.265c0.365,0.178,0.674,0.403,0.925,0.677
			c0.252,0.274,0.442,0.583,0.574,0.926c0.131,0.342,0.197,0.679,0.197,1.011c0,0.696-0.188,1.401-0.565,2.114
			c-0.377,0.715-0.908,1.435-1.593,2.159c-0.686,0.726-1.508,1.45-2.467,2.175c-0.959,0.727-2.027,1.447-3.203,2.167
			c-0.16,0.092-0.32,0.191-0.479,0.3c-0.161,0.109-0.24,0.243-0.24,0.403c0,0.342,0.046,0.702,0.138,1.079
			c0.091,0.376,0.257,0.722,0.496,1.035c0.24,0.315,0.562,0.575,0.968,0.78c0.405,0.205,0.923,0.308,1.551,0.308
			c0.799,0,1.612-0.128,2.44-0.385s1.639-0.614,2.433-1.071c0.793-0.456,1.564-0.998,2.313-1.626
			c0.747-0.628,1.447-1.309,2.099-2.039c0.365-0.399,0.656-0.6,0.873-0.6c0.125,0,0.217,0.074,0.274,0.224
			C327.745,315.768,327.773,316.014,327.773,316.356z M319.826,309.042c0-0.126-0.034-0.24-0.104-0.343
			c-0.068-0.103-0.151-0.188-0.248-0.257c-0.097-0.069-0.199-0.123-0.308-0.163c-0.109-0.04-0.204-0.061-0.283-0.061
			c-0.503,0-1.017,0.181-1.542,0.54s-1.017,0.859-1.474,1.499c-0.456,0.64-0.856,1.399-1.198,2.278
			c-0.343,0.88-0.577,1.832-0.702,2.86c0.159-0.103,0.37-0.251,0.634-0.445c0.263-0.194,0.545-0.408,0.848-0.643
			c0.303-0.233,0.604-0.471,0.907-0.71c0.304-0.241,0.574-0.463,0.814-0.669c0.525-0.445,0.959-0.842,1.302-1.19
			c0.343-0.348,0.613-0.668,0.813-0.959s0.34-0.576,0.42-0.856C319.785,309.644,319.826,309.35,319.826,309.042z"/>
		<path fill="#1173A8" stroke="#1173A8" stroke-width="0.987" stroke-miterlimit="10" d="M369.792,318.309
			c-0.537,0.491-1.15,1.002-1.842,1.533s-1.43,1.017-2.218,1.455c-0.788,0.44-1.619,0.803-2.492,1.088
			c-0.874,0.286-1.756,0.429-2.646,0.429c-0.822,0-1.527-0.171-2.116-0.514c-0.588-0.343-1.07-0.867-1.447-1.576
			c-0.376-0.708-0.653-1.599-0.831-2.672c-0.177-1.073-0.265-2.341-0.265-3.803c-0.274,0.435-0.574,0.88-0.9,1.336
			c-0.324,0.457-0.65,0.894-0.976,1.311c-0.326,0.417-0.637,0.796-0.934,1.14c-0.297,0.342-0.555,0.622-0.771,0.839
			c-1.6,1.587-3.098,2.809-4.497,3.665c-1.398,0.856-2.715,1.285-3.948,1.285c-0.399,0-0.75-0.068-1.054-0.205
			c-0.303-0.137-0.56-0.312-0.771-0.522s-0.371-0.452-0.479-0.72c-0.108-0.269-0.162-0.533-0.162-0.797
			c0-0.913,0.14-1.85,0.419-2.809c0.279-0.96,0.643-1.901,1.088-2.827c0.445-0.925,0.942-1.813,1.49-2.664
			c0.548-0.85,1.096-1.618,1.645-2.303c0.514-0.663,1.045-1.279,1.593-1.851s1.082-1.064,1.602-1.481
			c0.521-0.417,1.014-0.742,1.482-0.976c0.468-0.234,0.885-0.352,1.25-0.352c0.193,0,0.414,0.046,0.659,0.137
			c0.246,0.092,0.485,0.202,0.72,0.334c0.234,0.131,0.445,0.263,0.634,0.394c0.188,0.132,0.322,0.231,0.402,0.3
			c0.137,0.16,0.283,0.34,0.438,0.54c0.153,0.2,0.23,0.414,0.23,0.642c0,0.127-0.028,0.301-0.086,0.523
			c-0.057,0.222-0.16,0.391-0.308,0.505c-0.058,0.057-0.109,0.117-0.154,0.18c-0.046,0.063-0.106,0.12-0.18,0.172
			c-0.074,0.052-0.172,0.097-0.291,0.137c-0.12,0.04-0.283,0.06-0.488,0.06c-0.206,0-0.383-0.065-0.531-0.196
			c-0.149-0.131-0.28-0.283-0.395-0.454c-0.113-0.171-0.214-0.343-0.3-0.515c-0.085-0.171-0.168-0.296-0.248-0.376
			c-0.411,0-0.839,0.145-1.285,0.437c-0.445,0.291-0.893,0.677-1.344,1.156s-0.896,1.03-1.337,1.653
			c-0.439,0.622-0.858,1.268-1.258,1.935c-0.4,0.669-0.769,1.334-1.105,1.996s-0.632,1.271-0.882,1.825
			c-0.252,0.553-0.445,1.033-0.582,1.438c-0.138,0.405-0.206,0.683-0.206,0.83c0,0.298,0.104,0.558,0.316,0.779
			c0.212,0.224,0.494,0.334,0.849,0.334c0.33,0,0.69-0.077,1.078-0.23c0.389-0.154,0.777-0.346,1.165-0.574
			c0.389-0.229,0.757-0.468,1.105-0.72c0.348-0.251,0.642-0.479,0.882-0.685c0.56-0.48,1.159-1.028,1.799-1.645
			c0.639-0.616,1.256-1.272,1.85-1.97c0.594-0.696,1.124-1.414,1.594-2.149c0.468-0.737,0.815-1.466,1.044-2.185
			c0.138-0.457,0.266-0.984,0.386-1.584c0.119-0.601,0.234-1.245,0.343-1.937c0.108-0.69,0.205-1.407,0.291-2.149
			c0.085-0.742,0.162-1.47,0.231-2.184c0.068-0.714,0.128-1.405,0.18-2.073s0.1-1.271,0.146-1.808
			c0.068-1.449,0.748-2.175,2.038-2.175c0.286,0,0.509,0.168,0.669,0.505c0.159,0.337,0.239,0.813,0.239,1.431
			c0,0.092-0.028,0.349-0.085,0.771c-0.059,0.422-0.138,0.949-0.24,1.584c-0.103,0.634-0.218,1.345-0.343,2.133
			c-0.126,0.787-0.251,1.602-0.377,2.44c-0.126,0.84-0.251,1.674-0.377,2.502c-0.126,0.827-0.239,1.595-0.343,2.303
			c-0.103,0.709-0.183,1.328-0.239,1.859c-0.057,0.53-0.086,0.916-0.086,1.156c0,0.319,0.003,0.705,0.009,1.155
			c0.006,0.452,0.034,0.917,0.085,1.396c0.052,0.479,0.138,0.957,0.258,1.431s0.293,0.899,0.521,1.275
			c0.229,0.378,0.52,0.684,0.874,0.917c0.354,0.234,0.793,0.351,1.319,0.351c0.651,0,1.296-0.082,1.936-0.247
			c0.64-0.167,1.29-0.403,1.953-0.712c0.662-0.309,1.341-0.685,2.038-1.13c0.696-0.446,1.427-0.942,2.192-1.491
			c0.012-0.011,0.045-0.045,0.104-0.103c0.057-0.057,0.119-0.116,0.188-0.18c0.069-0.063,0.132-0.119,0.188-0.171
			s0.092-0.077,0.103-0.077c0.08,0,0.154,0.086,0.224,0.257c0.067,0.171,0.103,0.389,0.103,0.651c0,0.217-0.035,0.436-0.103,0.659
			C370.151,317.907,370.009,318.115,369.792,318.309z"/>
		<path fill="#1173A8" stroke="#1173A8" stroke-width="0.987" stroke-miterlimit="10" d="M385.346,316.356
			c0,0.399-0.148,0.834-0.445,1.302c-0.297,0.469-0.72,0.993-1.268,1.576c-0.628,0.662-1.319,1.276-2.072,1.842
			c-0.754,0.565-1.53,1.057-2.329,1.474c-0.8,0.416-1.61,0.744-2.433,0.984s-1.617,0.359-2.382,0.359
			c-1.792,0-3.181-0.576-4.162-1.729c-0.981-1.154-1.473-2.844-1.473-5.071c0-0.707,0.063-1.43,0.188-2.166
			c0.126-0.737,0.312-1.465,0.558-2.184c0.245-0.72,0.554-1.417,0.925-2.091c0.37-0.674,0.802-1.302,1.293-1.885
			c0.309-0.353,0.651-0.713,1.028-1.078c0.376-0.365,0.793-0.694,1.25-0.985c0.456-0.291,0.957-0.527,1.499-0.711
			c0.542-0.182,1.133-0.273,1.772-0.273c0.457,0,0.868,0.088,1.233,0.265c0.365,0.178,0.674,0.403,0.925,0.677
			c0.252,0.274,0.442,0.583,0.574,0.926c0.131,0.342,0.197,0.679,0.197,1.011c0,0.696-0.188,1.401-0.565,2.114
			c-0.377,0.715-0.908,1.435-1.593,2.159c-0.686,0.726-1.508,1.45-2.467,2.175c-0.959,0.727-2.027,1.447-3.203,2.167
			c-0.16,0.092-0.32,0.191-0.479,0.3c-0.161,0.109-0.24,0.243-0.24,0.403c0,0.342,0.046,0.702,0.138,1.079
			c0.091,0.376,0.257,0.722,0.496,1.035c0.239,0.315,0.562,0.575,0.968,0.78c0.405,0.205,0.923,0.308,1.551,0.308
			c0.799,0,1.612-0.128,2.44-0.385s1.639-0.614,2.433-1.071c0.793-0.456,1.564-0.998,2.313-1.626
			c0.747-0.628,1.447-1.309,2.099-2.039c0.365-0.399,0.656-0.6,0.873-0.6c0.125,0,0.217,0.074,0.274,0.224
			C385.317,315.768,385.346,316.014,385.346,316.356z M377.398,309.042c0-0.126-0.034-0.24-0.104-0.343
			c-0.068-0.103-0.151-0.188-0.248-0.257c-0.097-0.069-0.199-0.123-0.308-0.163c-0.109-0.04-0.204-0.061-0.283-0.061
			c-0.503,0-1.017,0.181-1.542,0.54s-1.017,0.859-1.474,1.499c-0.456,0.64-0.856,1.399-1.198,2.278
			c-0.343,0.88-0.577,1.832-0.702,2.86c0.159-0.103,0.37-0.251,0.634-0.445c0.263-0.194,0.545-0.408,0.848-0.643
			c0.303-0.233,0.604-0.471,0.907-0.71c0.304-0.241,0.574-0.463,0.814-0.669c0.525-0.445,0.959-0.842,1.302-1.19
			c0.343-0.348,0.613-0.668,0.813-0.959s0.34-0.576,0.419-0.856C377.357,309.644,377.398,309.35,377.398,309.042z"/>
		<path fill="#1173A8" stroke="#1173A8" stroke-width="0.987" stroke-miterlimit="10" d="M427.758,311.714
			c0,0.354-0.119,0.776-0.359,1.268s-0.508,0.851-0.805,1.078c-1.143,0.926-2.407,1.788-3.795,2.587
			c-1.387,0.8-2.92,1.594-4.599,2.382c-1.68,0.787-3.284,1.468-4.813,2.038c-1.531,0.571-3.01,1.045-4.437,1.422
			c-0.126,0.046-0.349,0.068-0.668,0.068c-0.548,0-1.074-0.148-1.576-0.445c-0.491-0.309-0.736-0.748-0.736-1.319
			c0-0.205,0.068-0.377,0.206-0.514c0.193-0.193,0.582-0.399,1.164-0.617c0.594-0.216,1.348-0.474,2.262-0.77
			c0.456-0.149,0.842-0.28,1.155-0.395c0.314-0.114,0.551-0.212,0.712-0.291c0.73-0.389,1.407-0.908,2.029-1.56
			c0.622-0.65,1.14-1.335,1.551-2.055c0.559-0.937,0.839-1.765,0.839-2.484c0-1.552-0.503-2.33-1.508-2.33
			c-0.582,0-1.324,0.235-2.227,0.702c-0.445,0.229-0.854,0.463-1.225,0.704c-0.372,0.239-0.705,0.474-1.002,0.702
			c-0.479,0.388-0.988,0.916-1.525,1.584c-0.536,0.667-1.062,1.39-1.575,2.166c-0.514,0.777-0.997,1.562-1.447,2.356
			c-0.452,0.794-0.831,1.51-1.14,2.149c-0.057,0.525-0.114,1.11-0.172,1.755c-0.057,0.646-0.119,1.357-0.188,2.134
			c-0.126,1.552-0.269,3.018-0.428,4.394c-0.161,1.376-0.337,2.566-0.532,3.571c-0.033,0.206-0.067,0.41-0.103,0.616
			c-0.034,0.206-0.074,0.359-0.119,0.463c-0.138,0.354-0.383,0.531-0.737,0.531c-0.319,0-0.748-0.166-1.284-0.497
			c-0.514-0.32-0.771-0.634-0.771-0.942c0-0.193,0.012-0.425,0.034-0.694c0.023-0.268,0.058-0.573,0.104-0.916
			c0.092-0.924,0.174-1.716,0.248-2.372c0.074-0.657,0.14-1.18,0.196-1.567c0.16-1.176,0.304-2.446,0.429-3.812
			c0.126-1.364,0.229-2.852,0.309-4.462c0.023-0.468,0.04-1.159,0.052-2.072c0.022-0.937,0.042-1.745,0.06-2.425
			c0.018-0.679,0.043-1.247,0.077-1.704c0.16-2.181,0.73-3.271,1.713-3.271c0.389,0,0.73,0.172,1.028,0.514
			c0.296,0.354,0.445,0.72,0.445,1.096c0,0.4-0.043,0.841-0.129,1.319c-0.085,0.48-0.177,0.972-0.274,1.474
			c-0.098,0.503-0.188,0.997-0.273,1.481c-0.086,0.485-0.129,0.923-0.129,1.311c0,0.332,0.034,0.497,0.104,0.497
			c0.798-1.439,1.584-2.689,2.355-3.752c0.77-1.062,1.538-1.952,2.303-2.672c1.131-1.05,2.216-1.804,3.255-2.261
			c1.027-0.457,2.272-0.686,3.734-0.686c0.423-0.012,0.803,0.132,1.14,0.428c0.336,0.298,0.625,0.666,0.864,1.105
			c0.24,0.439,0.423,0.908,0.548,1.404c0.126,0.497,0.188,0.934,0.188,1.311c0.012,0.571-0.082,1.168-0.282,1.79
			c-0.199,0.623-0.466,1.239-0.796,1.851c-0.332,0.61-0.709,1.198-1.131,1.765c-0.423,0.564-0.856,1.064-1.302,1.498
			c1.131-0.423,2.404-0.987,3.819-1.696c1.428-0.72,2.767-1.489,4.017-2.312c1.251-0.823,2.379-1.662,3.383-2.519
			c0.491-0.399,0.926-0.6,1.303-0.6C427.604,311.217,427.758,311.383,427.758,311.714z"/>
		<path fill="#1173A8" stroke="#1173A8" stroke-width="0.987" stroke-miterlimit="10" d="M450.164,318.036
			c0,0.205-0.076,0.428-0.224,0.667c-0.148,0.24-0.331,0.475-0.548,0.702c-0.218,0.229-0.454,0.439-0.712,0.635
			c-0.256,0.194-0.493,0.359-0.71,0.496c-1.176,0.72-2.347,1.291-3.512,1.713c-1.164,0.423-2.336,0.634-3.512,0.634
			c-1.256,0-2.246-0.333-2.972-1.002c-0.725-0.668-1.139-1.767-1.242-3.297c-0.411,0.491-0.882,1.019-1.413,1.584
			s-1.104,1.116-1.722,1.652c-0.616,0.537-1.258,1.046-1.927,1.525c-0.668,0.479-1.339,0.879-2.013,1.198
			c-0.16,0.069-0.377,0.149-0.651,0.241c-0.273,0.091-0.563,0.176-0.864,0.257c-0.303,0.079-0.592,0.145-0.865,0.196
			c-0.274,0.052-0.491,0.077-0.651,0.077c-0.514,0-0.953-0.119-1.318-0.36c-0.366-0.239-0.665-0.541-0.899-0.907
			c-0.234-0.365-0.408-0.765-0.522-1.199s-0.172-0.845-0.172-1.232c0-0.354,0.028-0.757,0.087-1.208
			c0.057-0.451,0.127-0.919,0.214-1.405c0.085-0.485,0.186-0.979,0.299-1.481c0.115-0.502,0.234-0.994,0.36-1.473
			c0.285-1.006,0.551-1.971,0.796-2.896s0.482-1.873,0.711-2.843c0.126-0.549,0.349-0.945,0.668-1.191
			c0.319-0.245,0.662-0.367,1.028-0.367c0.456,0,0.821,0.162,1.097,0.488c0.273,0.324,0.411,0.728,0.411,1.207
			c0,0.217-0.041,0.46-0.12,0.728c-0.08,0.27-0.178,0.537-0.291,0.806c-0.115,0.269-0.234,0.521-0.36,0.763
			c-0.126,0.239-0.229,0.439-0.309,0.599c-0.217,0.503-0.439,1.082-0.668,1.739c-0.229,0.656-0.435,1.319-0.616,1.986
			c-0.184,0.668-0.331,1.308-0.446,1.919c-0.113,0.611-0.171,1.128-0.171,1.55c0,0.206,0.029,0.417,0.086,0.634
			c0.057,0.218,0.134,0.418,0.231,0.601c0.097,0.183,0.208,0.333,0.334,0.453s0.257,0.18,0.394,0.18
			c0.435,0,0.916-0.097,1.448-0.291c0.53-0.194,1.072-0.46,1.627-0.797c0.554-0.337,1.11-0.728,1.67-1.173s1.091-0.919,1.593-1.422
			c0.503-0.502,0.965-1.021,1.388-1.559s0.776-1.057,1.063-1.559c0.147-0.263,0.276-0.558,0.386-0.883
			c0.108-0.325,0.207-0.661,0.299-1.011c0.092-0.348,0.191-0.702,0.3-1.062c0.108-0.36,0.237-0.711,0.386-1.054
			c0.104-0.206,0.206-0.426,0.308-0.659c0.103-0.234,0.218-0.455,0.344-0.659c0.125-0.206,0.263-0.377,0.411-0.515
			c0.147-0.138,0.319-0.205,0.513-0.205c0.252,0,0.471,0.054,0.66,0.162c0.188,0.108,0.346,0.234,0.471,0.378
			c0.126,0.142,0.22,0.291,0.283,0.445c0.063,0.153,0.094,0.271,0.094,0.351c0,0.138-0.04,0.352-0.119,0.643
			c-0.08,0.291-0.181,0.631-0.301,1.019c-0.119,0.389-0.248,0.805-0.386,1.251c-0.137,0.445-0.265,0.88-0.384,1.302
			c-0.121,0.423-0.221,0.821-0.301,1.199c-0.08,0.376-0.12,0.696-0.12,0.959c0,0.571,0.063,1.051,0.189,1.438
			c0.124,0.389,0.313,0.699,0.564,0.934s0.565,0.403,0.942,0.506s0.816,0.154,1.319,0.154c0.548,0,1.099-0.063,1.652-0.189
			c0.555-0.125,1.11-0.294,1.671-0.505c0.559-0.211,1.124-0.46,1.695-0.745s1.142-0.582,1.713-0.891
			c0.229-0.126,0.404-0.245,0.53-0.359s0.246-0.172,0.36-0.172c0.148,0,0.26,0.058,0.334,0.172S450.164,317.864,450.164,318.036z"/>
		<path fill="#1173A8" stroke="#1173A8" stroke-width="0.987" stroke-miterlimit="10" d="M470.359,311.954
			c0,0.183-0.126,0.485-0.378,0.908c-0.456,0.73-1.024,1.52-1.703,2.363c-0.68,0.846-1.435,1.694-2.262,2.544
			c-0.828,0.851-1.707,1.671-2.638,2.458c-0.931,0.788-1.876,1.482-2.835,2.081c-0.959,0.6-1.907,1.083-2.844,1.448
			s-1.827,0.548-2.672,0.548h-0.12c-1.953,0-3.414-0.56-4.385-1.678c-0.971-1.12-1.457-2.679-1.457-4.678
			c0-0.798,0.063-1.644,0.189-2.534c0.125-0.892,0.345-1.797,0.659-2.716c0.313-0.918,0.742-1.838,1.285-2.757
			c0.541-0.92,1.229-1.808,2.063-2.664c0.628-0.628,1.291-1.111,1.987-1.448s1.354-0.505,1.97-0.505c0.091,0,0.211,0.023,0.36,0.068
			c0.147,0.046,0.299,0.106,0.453,0.18c0.154,0.074,0.302,0.166,0.445,0.274s0.266,0.227,0.368,0.351
			c0.319,0.412,0.555,0.806,0.702,1.183c0.148,0.377,0.223,0.817,0.223,1.319c0,0.662-0.092,1.265-0.274,1.807
			s-0.444,1.071-0.787,1.585s-0.765,1.03-1.268,1.55c-0.502,0.52-1.079,1.082-1.729,1.688c-0.218,0.205-0.475,0.434-0.771,0.686
			c-0.297,0.25-0.616,0.513-0.959,0.787s-0.697,0.561-1.063,0.856c-0.365,0.298-0.725,0.589-1.079,0.874
			c0.092,2.045,1.228,3.066,3.409,3.066c1.21,0,2.501-0.319,3.871-0.959c0.674-0.32,1.302-0.688,1.885-1.105
			c0.582-0.417,1.152-0.842,1.713-1.276c0.273-0.217,0.576-0.474,0.908-0.771c0.33-0.297,0.67-0.611,1.019-0.942
			c0.348-0.331,0.695-0.662,1.045-0.993c0.348-0.331,0.676-0.646,0.984-0.941c0.194-0.195,0.403-0.4,0.625-0.617
			c0.224-0.217,0.46-0.452,0.712-0.702l0.924-0.926c0.561-0.491,0.965-0.736,1.217-0.736
			C470.29,311.628,470.359,311.737,470.359,311.954z M457.17,309.384c0-0.342-0.092-0.643-0.274-0.898
			c-0.183-0.257-0.406-0.386-0.669-0.386c-0.193,0-0.442,0.08-0.744,0.239c-0.303,0.16-0.625,0.445-0.969,0.856
			c-0.696,0.846-1.29,1.865-1.78,3.059c-0.491,1.193-0.835,2.521-1.028,3.981c0.72-0.582,1.327-1.102,1.824-1.559
			c0.497-0.456,0.945-0.885,1.345-1.284c0.274-0.274,0.545-0.565,0.813-0.874s0.514-0.633,0.736-0.977
			c0.224-0.343,0.402-0.695,0.54-1.063C457.101,310.115,457.17,309.75,457.17,309.384z"/>
		<path fill="#1173A8" stroke="#1173A8" stroke-width="0.987" stroke-miterlimit="10" d="M497.218,312.623
			c0,0.216-0.037,0.437-0.111,0.658c-0.074,0.224-0.165,0.446-0.273,0.669c-0.109,0.223-0.231,0.439-0.369,0.65
			c-0.137,0.212-0.268,0.414-0.394,0.608c-0.331,0.514-0.72,1.037-1.165,1.567c-0.445,0.531-0.922,1.048-1.43,1.551
			c-0.509,0.502-1.031,0.976-1.567,1.422c-0.537,0.445-1.063,0.839-1.576,1.182c-0.411,0.274-0.802,0.531-1.173,0.771
			c-0.372,0.239-0.746,0.445-1.122,0.617c-0.377,0.171-0.771,0.309-1.183,0.41c-0.411,0.103-0.861,0.154-1.353,0.154
			c-0.948,0-1.72-0.239-2.313-0.719c-0.298-0.24-0.558-0.551-0.779-0.934c-0.224-0.383-0.418-0.808-0.583-1.276
			c-0.165-0.468-0.309-0.966-0.428-1.49c-0.12-0.525-0.221-1.045-0.3-1.559c-0.104-0.641-0.2-1.214-0.291-1.722
			c-0.092-0.509-0.198-0.937-0.317-1.285c-0.12-0.348-0.265-0.617-0.437-0.805c-0.172-0.188-0.394-0.283-0.668-0.283
			c-0.217,0-0.423,0.023-0.617,0.069s-0.396,0.137-0.607,0.273c-0.212,0.138-0.443,0.331-0.694,0.583
			c-0.252,0.251-0.545,0.582-0.882,0.993s-0.723,0.914-1.156,1.507c-0.435,0.594-0.942,1.302-1.524,2.124
			c-0.286,0.4-0.623,0.84-1.011,1.319c-0.389,0.479-0.785,0.937-1.19,1.371c-0.406,0.434-0.803,0.815-1.191,1.147
			c-0.388,0.331-0.73,0.542-1.026,0.633c-1.006-0.217-1.509-1.467-1.509-3.751c0-0.604,0.069-1.524,0.206-2.757
			c0.068-0.561,0.148-1.146,0.24-1.757c0.091-0.61,0.206-1.222,0.343-1.833c0.137-0.61,0.293-1.204,0.471-1.78
			c0.177-0.577,0.386-1.111,0.625-1.603c0.114-0.229,0.234-0.408,0.359-0.539c0.126-0.132,0.255-0.229,0.386-0.291
			c0.132-0.063,0.269-0.104,0.411-0.12s0.289-0.026,0.438-0.026c0.182,0,0.345,0.126,0.487,0.378
			c0.144,0.251,0.215,0.599,0.215,1.044c0,0.274-0.023,0.532-0.069,0.771s-0.107,0.485-0.188,0.736
			c-0.081,0.251-0.166,0.522-0.257,0.813c-0.092,0.291-0.184,0.626-0.275,1.002c-0.067,0.309-0.145,0.651-0.23,1.028
			c-0.086,0.376-0.166,0.759-0.24,1.147c-0.074,0.388-0.137,0.769-0.188,1.139c-0.052,0.371-0.077,0.705-0.077,1.002
			c0,0.205,0.033,0.418,0.103,0.634c0.319-0.033,0.845-0.514,1.576-1.438c0.376-0.468,0.79-0.981,1.241-1.542
			c0.451-0.559,0.938-1.176,1.465-1.85c0.389-0.503,0.772-0.97,1.155-1.404s0.78-0.814,1.191-1.14s0.848-0.582,1.311-0.771
			s0.973-0.283,1.533-0.283c0.594,0,1.088,0.129,1.481,0.386s0.71,0.611,0.951,1.063c0.239,0.45,0.425,0.99,0.556,1.618
			c0.132,0.629,0.237,1.319,0.317,2.072c0.068,0.641,0.134,1.273,0.197,1.901c0.063,0.629,0.186,1.19,0.368,1.688
			s0.445,0.899,0.787,1.208c0.344,0.309,0.834,0.463,1.474,0.463c0.491,0,1.005-0.114,1.542-0.343
			c0.536-0.229,1.102-0.545,1.695-0.951c0.595-0.404,1.208-0.882,1.842-1.43s1.287-1.147,1.962-1.799
			c0.263-0.251,0.551-0.568,0.864-0.951c0.314-0.383,0.623-0.75,0.926-1.104c0.302-0.354,0.585-0.656,0.847-0.908
			c0.263-0.251,0.474-0.376,0.635-0.376c0.067,0,0.18,0.033,0.334,0.103C497.141,312.347,497.218,312.462,497.218,312.623z"/>
		<path fill="#1173A8" stroke="#1173A8" stroke-width="0.987" stroke-miterlimit="10" d="M494.82,320.022
			c0-0.959,0.082-1.901,0.248-2.826c0.165-0.925,0.349-1.807,0.548-2.646c0.2-0.84,0.383-1.613,0.549-2.321
			c0.165-0.707,0.248-1.324,0.248-1.851c0-0.171-0.052-0.276-0.154-0.316c-0.104-0.04-0.24-0.06-0.411-0.06
			c-0.137,0-0.289,0.018-0.454,0.051c-0.166,0.034-0.337,0.069-0.514,0.104c-0.178,0.034-0.349,0.068-0.515,0.103
			c-0.165,0.034-0.311,0.052-0.437,0.052c-0.389,0-0.73-0.003-1.027-0.009s-0.548-0.049-0.754-0.128
			c-0.205-0.08-0.359-0.218-0.462-0.412c-0.104-0.194-0.154-0.479-0.154-0.856c0-0.159,0.054-0.293,0.162-0.402
			c0.108-0.108,0.246-0.196,0.411-0.266c0.165-0.068,0.348-0.116,0.548-0.146c0.2-0.028,0.392-0.043,0.574-0.043
			c0.138,0,0.345-0.015,0.625-0.043s0.576-0.063,0.892-0.103c0.313-0.039,0.613-0.077,0.898-0.111s0.498-0.057,0.635-0.068
			c0.183-0.012,0.359-0.105,0.53-0.283c0.172-0.176,0.319-0.386,0.445-0.625s0.231-0.484,0.317-0.736
			c0.085-0.251,0.146-0.463,0.18-0.634c0.058-0.309,0.129-0.693,0.214-1.156c0.086-0.463,0.181-0.931,0.283-1.404
			s0.214-0.926,0.334-1.354c0.119-0.429,0.242-0.768,0.368-1.02c0.137-0.273,0.297-0.481,0.479-0.625
			c0.183-0.143,0.411-0.214,0.686-0.214c0.811,0,1.216,0.439,1.216,1.319c0,0.524-0.12,1.147-0.359,1.867
			c-0.069,0.229-0.148,0.502-0.24,0.821c-0.092,0.32-0.178,0.649-0.257,0.985c-0.08,0.337-0.148,0.654-0.205,0.95
			c-0.059,0.298-0.087,0.537-0.087,0.72c0,0.399,0.206,0.6,0.617,0.6c0.491,0,0.919-0.005,1.285-0.018
			c0.365-0.011,0.726-0.033,1.079-0.068c0.354-0.034,0.739-0.086,1.156-0.153c0.417-0.069,0.927-0.166,1.533-0.292
			c0.491-0.103,0.864-0.186,1.121-0.248c0.258-0.063,0.483-0.123,0.677-0.18c0.194-0.057,0.396-0.117,0.608-0.18
			s0.505-0.146,0.883-0.249c0,0.022,0.036,0.061,0.11,0.112c0.075,0.051,0.154,0.11,0.24,0.18c0.085,0.067,0.162,0.134,0.231,0.196
			c0.068,0.063,0.103,0.111,0.103,0.146c0,0.194-0.04,0.368-0.12,0.522s-0.18,0.294-0.3,0.42s-0.254,0.236-0.402,0.334
			s-0.297,0.186-0.445,0.266c-0.73,0.32-1.539,0.57-2.424,0.753c-0.885,0.184-1.756,0.343-2.612,0.48
			c-0.571,0.091-1.085,0.171-1.541,0.239c-0.457,0.069-0.854,0.144-1.19,0.224s-0.62,0.168-0.849,0.266
			c-0.229,0.097-0.394,0.226-0.497,0.385c-0.057,0.171-0.14,0.469-0.248,0.891c-0.108,0.423-0.229,0.894-0.359,1.413
			c-0.132,0.521-0.261,1.054-0.386,1.602s-0.229,1.039-0.308,1.474c-0.046,0.205-0.095,0.493-0.146,0.864
			c-0.052,0.372-0.103,0.757-0.154,1.157c-0.051,0.399-0.091,0.776-0.119,1.13c-0.029,0.354-0.043,0.616-0.043,0.788
			c0.022,1.006,0.211,1.725,0.565,2.158c0.354,0.435,0.959,0.651,1.815,0.651c0.593-0.034,1.153-0.101,1.678-0.197
			c0.525-0.097,1.065-0.26,1.62-0.488c0.553-0.229,1.149-0.534,1.79-0.917c0.639-0.382,1.376-0.87,2.209-1.464
			c0.251-0.183,0.494-0.374,0.729-0.573c0.233-0.2,0.454-0.381,0.659-0.54c0.205-0.16,0.399-0.294,0.582-0.403
			c0.183-0.108,0.354-0.162,0.515-0.162c0.205,0,0.334,0.037,0.386,0.111c0.051,0.074,0.077,0.209,0.077,0.402
			c0,0.148-0.056,0.332-0.164,0.548c-0.108,0.218-0.257,0.452-0.445,0.702c-0.188,0.252-0.416,0.512-0.685,0.78
			s-0.557,0.521-0.865,0.763c-0.674,0.536-1.374,1.044-2.099,1.523c-0.726,0.48-1.462,0.899-2.21,1.26
			c-0.748,0.359-1.492,0.646-2.235,0.856c-0.742,0.211-1.473,0.316-2.191,0.316c-0.823,0-1.525-0.131-2.108-0.394
			c-0.582-0.263-1.056-0.614-1.421-1.054c-0.366-0.439-0.634-0.939-0.805-1.498C494.905,321.209,494.82,320.627,494.82,320.022z"/>
		<path fill="#1173A8" stroke="#1173A8" stroke-width="0.987" stroke-miterlimit="10" d="M530.21,313.05
			c0,0.171-0.126,0.475-0.378,0.907c-0.594,0.856-1.258,1.713-1.994,2.569c-0.737,0.857-1.52,1.671-2.348,2.442
			c-0.828,0.77-1.689,1.489-2.587,2.158c-0.896,0.667-1.801,1.244-2.714,1.729c-0.915,0.485-1.825,0.859-2.733,1.122
			c-0.907,0.263-1.783,0.389-2.629,0.377c-1.827,0-3.246-0.531-4.257-1.593c-1.011-1.063-1.516-2.667-1.516-4.814
			c0-1.792,0.276-3.534,0.831-5.224c0.554-1.69,1.498-3.317,2.835-4.882c0.25-0.274,0.533-0.537,0.848-0.789
			c0.314-0.25,0.645-0.474,0.993-0.667c0.349-0.194,0.708-0.349,1.079-0.463c0.372-0.113,0.745-0.183,1.122-0.205
			c0.092,0,0.217,0.011,0.377,0.033c0.159,0.023,0.331,0.063,0.514,0.121c0.183,0.057,0.36,0.128,0.532,0.214
			c0.17,0.085,0.307,0.191,0.41,0.316c0.319,0.366,0.573,0.742,0.763,1.131c0.188,0.389,0.294,0.816,0.316,1.284
			c0.023,0.526-0.037,1.043-0.18,1.551c-0.144,0.509-0.383,1.028-0.72,1.559c-0.337,0.531-0.779,1.079-1.327,1.645
			c-0.548,0.564-1.211,1.174-1.986,1.824c-0.491,0.411-1.037,0.865-1.637,1.361c-0.6,0.498-1.322,1.02-2.167,1.568
			c0,1.107,0.334,1.949,1.003,2.526c0.667,0.577,1.584,0.865,2.749,0.865c0.65,0,1.307-0.086,1.969-0.257
			c0.663-0.172,1.313-0.396,1.954-0.677c0.639-0.28,1.258-0.601,1.857-0.959c0.6-0.36,1.162-0.729,1.688-1.105
			c0.971-0.708,1.851-1.413,2.638-2.116c0.788-0.702,1.57-1.441,2.348-2.218l0.925-0.925c0.56-0.49,0.964-0.736,1.216-0.736
			C530.141,312.725,530.21,312.833,530.21,313.05z M517.123,309.641c-0.012-0.171-0.038-0.339-0.077-0.505
			c-0.04-0.166-0.1-0.311-0.18-0.437c-0.081-0.126-0.172-0.226-0.274-0.3c-0.104-0.075-0.223-0.111-0.36-0.111
			c-0.604,0.034-1.211,0.401-1.815,1.105c-0.605,0.702-1.176,1.629-1.713,2.783c-0.126,0.251-0.237,0.533-0.334,0.847
			c-0.097,0.315-0.188,0.635-0.273,0.96c-0.086,0.325-0.161,0.648-0.224,0.968s-0.116,0.605-0.162,0.856
			c0.594-0.445,1.142-0.856,1.644-1.233c0.503-0.377,0.972-0.765,1.405-1.165c0.274-0.251,0.554-0.522,0.84-0.813
			c0.285-0.291,0.545-0.597,0.779-0.916c0.233-0.319,0.419-0.65,0.556-0.994C517.071,310.343,517.134,309.996,517.123,309.641z"/>
		<path fill="#1173A8" stroke="#1173A8" stroke-width="0.987" stroke-miterlimit="10" d="M537.438,321.153
			c0,0.582-0.103,1.15-0.309,1.704c-0.205,0.554-0.482,1.076-0.83,1.567c-0.35,0.491-0.749,0.944-1.199,1.361
			c-0.452,0.417-0.92,0.776-1.404,1.08c-0.486,0.302-0.975,0.536-1.466,0.702c-0.49,0.165-0.941,0.248-1.353,0.248
			c-0.571,0-0.948-0.125-1.131-0.377s-0.273-0.604-0.273-1.063c0-0.422,0.08-0.745,0.239-0.967c0.16-0.224,0.389-0.414,0.686-0.574
			c0.034-0.012,0.097-0.025,0.188-0.043c0.091-0.018,0.19-0.028,0.299-0.034c0.108-0.005,0.218-0.012,0.326-0.018
			c0.108-0.005,0.196-0.008,0.266-0.008c0.08,0,0.194-0.018,0.342-0.052c0.149-0.034,0.309-0.082,0.48-0.146
			c0.171-0.063,0.348-0.143,0.53-0.24c0.183-0.097,0.354-0.208,0.515-0.334c0.456-0.365,0.779-0.773,0.967-1.225
			c0.189-0.45,0.283-0.854,0.283-1.208c0-0.445-0.143-0.861-0.428-1.25s-0.646-0.768-1.079-1.139
			c-0.435-0.371-0.903-0.742-1.405-1.114c-0.503-0.37-0.97-0.765-1.404-1.181c-0.435-0.417-0.794-0.859-1.079-1.328
			c-0.286-0.468-0.428-0.987-0.428-1.56c0-0.284,0.036-0.587,0.11-0.907c0.075-0.32,0.172-0.634,0.291-0.942
			c0.12-0.309,0.258-0.607,0.411-0.898c0.154-0.292,0.317-0.558,0.489-0.797c0.274-0.389,0.573-0.771,0.899-1.147
			c0.325-0.377,0.653-0.712,0.984-1.003s0.656-0.524,0.977-0.702c0.319-0.177,0.616-0.265,0.891-0.265
			c0.776,0,1.164,0.456,1.164,1.369c0,0.32-0.127,0.691-0.385,1.113c-0.257,0.424-0.563,0.812-0.917,1.165
			c-0.548,0.526-1.027,0.975-1.438,1.345c-0.411,0.371-0.794,0.751-1.147,1.14c0.263,0.389,0.549,0.742,0.856,1.062
			c0.308,0.32,0.631,0.628,0.968,0.926c0.337,0.297,0.68,0.588,1.028,0.873c0.348,0.285,0.693,0.583,1.035,0.892
			c0.32,0.296,0.626,0.597,0.917,0.898c0.291,0.303,0.551,0.617,0.779,0.942s0.411,0.665,0.549,1.02
			C537.37,320.394,537.438,320.764,537.438,321.153z"/>
	</g>
	<g>
		<path d="M12.137,232.021c0-0.061,0.029-0.212,0.085-0.455l8.207-26.717c0.17-0.535,0.588-0.95,1.254-1.244
			c0.665-0.293,1.423-0.439,2.272-0.439s1.614,0.163,2.294,0.488c0.68,0.326,1.104,0.786,1.274,1.381l8.199,26.719
			c0.057,0.228,0.085,0.369,0.085,0.425c0,0.624-0.382,1.162-1.147,1.615c-0.765,0.452-1.544,0.679-2.336,0.679
			c-1.048,0-1.672-0.367-1.87-1.104l-1.614-5.65h-9.101l-1.583,5.652c-0.224,0.734-0.925,1.102-2.105,1.102
			c-0.925,0-1.81-0.233-2.651-0.703C12.558,233.299,12.137,232.717,12.137,232.021z M20.952,223.385h7.346l-3.696-13.04
			L20.952,223.385z"/>
		<path d="M39.894,229.587c0-0.651,0.248-1.31,0.744-1.975c0.495-0.666,1.055-0.999,1.678-0.999c0.368,0,0.786,0.177,1.253,0.53
			c0.467,0.353,0.919,0.743,1.359,1.169c0.439,0.427,1.069,0.816,1.891,1.17c0.821,0.354,1.727,0.529,2.718,0.529
			c1.36,0,2.492-0.312,3.398-0.935c0.906-0.622,1.359-1.543,1.359-2.761c0-0.85-0.248-1.606-0.743-2.273
			c-0.496-0.664-1.147-1.217-1.954-1.656c-0.807-0.438-1.693-0.863-2.655-1.274c-0.963-0.41-1.933-0.87-2.91-1.381
			c-0.978-0.51-1.869-1.083-2.677-1.721c-0.807-0.637-1.458-1.485-1.954-2.548c-0.496-1.063-0.744-2.272-0.744-3.633
			c0-1.522,0.304-2.866,0.914-4.031c0.608-1.164,1.423-2.069,2.442-2.716s2.109-1.121,3.271-1.424
			c1.161-0.301,2.393-0.452,3.696-0.452c0.736,0,1.515,0.052,2.336,0.153s1.692,0.269,2.613,0.501
			c0.919,0.233,1.67,0.597,2.251,1.091c0.581,0.495,0.871,1.076,0.871,1.745c0,0.631-0.199,1.283-0.595,1.957
			c-0.397,0.674-0.935,1.01-1.614,1.01c-0.254,0-0.949-0.269-2.082-0.807c-1.133-0.538-2.394-0.808-3.78-0.808
			c-1.529,0-2.712,0.291-3.547,0.871c-0.835,0.581-1.253,1.38-1.253,2.4c0,0.821,0.34,1.536,1.02,2.145
			c0.68,0.61,1.522,1.104,2.527,1.486c1.005,0.383,2.095,0.865,3.271,1.445c1.175,0.58,2.266,1.211,3.271,1.89
			c1.005,0.68,1.848,1.665,2.527,2.952c0.68,1.289,1.02,2.798,1.02,4.525c0,2.904-0.928,5.145-2.783,6.723
			c-1.854,1.578-4.297,2.367-7.328,2.367c-2.69,0-4.998-0.552-6.924-1.656C40.856,232.094,39.894,230.891,39.894,229.587z"/>
		<path d="M65.296,225v-11.853c0-3.369,0.899-5.833,2.698-7.392c1.798-1.557,4.212-2.336,7.243-2.336
			c3.03,0,5.451,0.779,7.264,2.336c1.812,1.559,2.719,4.022,2.719,7.392V225c0,3.369-0.907,5.833-2.719,7.392
			c-1.813,1.558-4.234,2.336-7.264,2.336c-3.031,0-5.445-0.778-7.243-2.336C66.195,230.833,65.296,228.37,65.296,225z M70.818,225
			c0,3.257,1.473,4.884,4.418,4.884c2.973,0,4.46-1.627,4.46-4.884v-11.853c0-3.257-1.487-4.885-4.46-4.885
			c-2.946,0-4.418,1.628-4.418,4.885V225z"/>
		<path d="M91.675,225v-11.853c0-3.341,0.906-5.799,2.719-7.37c1.812-1.571,4.177-2.357,7.094-2.357
			c2.974,0,5.402,0.736,7.286,2.209c1.883,1.473,2.825,3.427,2.825,5.862c0,1.048-0.213,1.762-0.638,2.145
			c-0.425,0.382-1.133,0.574-2.124,0.574c-1.813,0-2.733-0.58-2.761-1.742c-0.028-0.367-0.063-0.686-0.106-0.956
			c-0.042-0.269-0.156-0.622-0.34-1.062c-0.185-0.439-0.418-0.808-0.701-1.104c-0.283-0.298-0.708-0.552-1.274-0.765
			c-0.567-0.212-1.232-0.318-1.997-0.318c-2.974,0-4.46,1.628-4.46,4.885V225c0,3.257,1.515,4.884,4.545,4.884
			c0.906,0,1.663-0.141,2.272-0.424c0.608-0.283,1.047-0.687,1.317-1.211c0.269-0.524,0.453-0.991,0.552-1.401
			s0.163-0.913,0.191-1.509c0.085-1.161,0.991-1.742,2.719-1.742c0.991,0,1.706,0.192,2.146,0.574
			c0.438,0.383,0.659,1.098,0.659,2.146c0,2.549-0.942,4.588-2.825,6.117c-1.884,1.529-4.327,2.294-7.328,2.294
			c-2.917,0-5.275-0.786-7.073-2.358C92.574,230.798,91.675,228.341,91.675,225z"/>
		<path d="M117.375,232.731V205.12c0-0.566,0.269-0.991,0.808-1.275c0.538-0.282,1.189-0.424,1.954-0.424s1.416,0.142,1.954,0.424
			c0.538,0.284,0.807,0.709,0.807,1.275v27.611c0,0.538-0.276,0.963-0.828,1.274c-0.552,0.313-1.197,0.467-1.933,0.467
			c-0.765,0-1.416-0.154-1.954-0.467C117.644,233.694,117.375,233.269,117.375,232.731z"/>
		<path d="M127.211,232.021c0-0.061,0.029-0.212,0.085-0.455l8.208-26.717c0.17-0.535,0.587-0.95,1.253-1.244
			c0.665-0.293,1.423-0.439,2.272-0.439s1.614,0.163,2.294,0.488c0.68,0.326,1.104,0.786,1.274,1.381l8.199,26.719
			c0.057,0.228,0.085,0.369,0.085,0.425c0,0.624-0.382,1.162-1.147,1.615c-0.765,0.452-1.544,0.679-2.336,0.679
			c-1.048,0-1.672-0.367-1.87-1.104l-1.614-5.65h-9.101l-1.583,5.652c-0.224,0.734-0.925,1.102-2.105,1.102
			c-0.925,0-1.81-0.233-2.651-0.703C127.632,233.299,127.211,232.717,127.211,232.021z M136.027,223.385h7.346l-3.696-13.04
			L136.027,223.385z"/>
		<path d="M156.201,225v-11.853c0-3.341,0.906-5.799,2.719-7.37c1.812-1.571,4.177-2.357,7.094-2.357
			c2.974,0,5.402,0.736,7.286,2.209c1.883,1.473,2.825,3.427,2.825,5.862c0,1.048-0.212,1.762-0.637,2.145
			c-0.425,0.382-1.133,0.574-2.124,0.574c-1.813,0-2.733-0.58-2.761-1.742c-0.028-0.367-0.063-0.686-0.106-0.956
			c-0.042-0.269-0.156-0.622-0.34-1.062c-0.185-0.439-0.418-0.808-0.701-1.104c-0.283-0.298-0.708-0.552-1.274-0.765
			c-0.567-0.212-1.232-0.318-1.997-0.318c-2.974,0-4.46,1.628-4.46,4.885V225c0,3.257,1.515,4.884,4.545,4.884
			c0.906,0,1.663-0.141,2.272-0.424c0.608-0.283,1.047-0.687,1.317-1.211c0.269-0.524,0.453-0.991,0.552-1.401
			s0.163-0.913,0.191-1.509c0.085-1.161,0.991-1.742,2.719-1.742c0.991,0,1.706,0.192,2.146,0.574
			c0.438,0.383,0.658,1.098,0.658,2.146c0,2.549-0.942,4.588-2.825,6.117c-1.884,1.529-4.327,2.294-7.328,2.294
			c-2.917,0-5.275-0.786-7.073-2.358C157.1,230.798,156.201,228.341,156.201,225z"/>
		<path d="M181.9,232.731V205.12c0-0.566,0.269-0.991,0.808-1.275c0.538-0.282,1.189-0.424,1.954-0.424s1.416,0.142,1.954,0.424
			c0.538,0.284,0.807,0.709,0.807,1.275v27.611c0,0.538-0.276,0.963-0.828,1.274c-0.552,0.313-1.197,0.467-1.933,0.467
			c-0.765,0-1.416-0.154-1.954-0.467C182.169,233.694,181.9,233.269,181.9,232.731z"/>
		<path d="M194.22,225v-11.853c0-3.369,0.898-5.833,2.697-7.392c1.798-1.557,4.212-2.336,7.243-2.336
			c3.03,0,5.451,0.779,7.264,2.336c1.812,1.559,2.719,4.022,2.719,7.392V225c0,3.369-0.907,5.833-2.719,7.392
			c-1.813,1.558-4.234,2.336-7.264,2.336c-3.03,0-5.445-0.778-7.243-2.336C195.119,230.833,194.22,228.37,194.22,225z M199.742,225
			c0,3.257,1.473,4.884,4.418,4.884c2.974,0,4.46-1.627,4.46-4.884v-11.853c0-3.257-1.486-4.885-4.46-4.885
			c-2.945,0-4.418,1.628-4.418,4.885V225z M201.356,197.94c0-0.622,0.241-1.062,0.723-1.316l5.607-2.719
			c0.283-0.056,0.467-0.085,0.552-0.085c0.453,0,0.85,0.22,1.19,0.659c0.34,0.438,0.509,0.913,0.509,1.423
			c0,0.623-0.254,1.048-0.764,1.273l-5.522,2.677c-0.284,0.113-0.482,0.17-0.595,0.17c-0.453,0-0.85-0.227-1.189-0.68
			S201.356,198.422,201.356,197.94z"/>
		<path d="M220.896,232.731v-27.569c0-0.566,0.269-0.997,0.807-1.295c0.538-0.298,1.189-0.446,1.954-0.446
			c1.019,0,1.798,0.185,2.336,0.552c0.538,0.369,1.132,1.162,1.784,2.38l8.199,15.844V205.12c0-0.566,0.269-0.991,0.807-1.275
			c0.538-0.282,1.189-0.424,1.954-0.424s1.416,0.142,1.955,0.424c0.538,0.284,0.807,0.709,0.807,1.275v27.611
			c0,0.538-0.275,0.963-0.828,1.274c-0.552,0.313-1.197,0.467-1.933,0.467c-1.501,0-2.563-0.58-3.186-1.741l-9.133-17.077v17.077
			c0,0.538-0.276,0.963-0.829,1.274c-0.552,0.313-1.196,0.467-1.933,0.467c-0.765,0-1.417-0.154-1.954-0.467
			C221.166,233.694,220.896,233.269,220.896,232.731z"/>
		<path d="M256.348,232.021c0-0.061,0.029-0.212,0.085-0.455l8.207-26.717c0.17-0.535,0.588-0.95,1.254-1.244
			c0.665-0.293,1.423-0.439,2.272-0.439c0.85,0,1.614,0.163,2.294,0.488c0.68,0.326,1.104,0.786,1.274,1.381l8.199,26.719
			c0.057,0.228,0.085,0.369,0.085,0.425c0,0.624-0.382,1.162-1.147,1.615c-0.765,0.452-1.544,0.679-2.336,0.679
			c-1.048,0-1.672-0.367-1.87-1.104l-1.614-5.65h-9.101l-1.583,5.652c-0.224,0.734-0.925,1.102-2.105,1.102
			c-0.925,0-1.81-0.233-2.651-0.703C256.769,233.299,256.348,232.717,256.348,232.021z M265.163,223.385h7.346l-3.696-13.04
			L265.163,223.385z"/>
		<path d="M285.634,232.731V205.12c0-0.452,0.17-0.85,0.51-1.189s0.764-0.51,1.274-0.51h8.411c6.711,0,10.067,2.96,10.067,8.878
			c0,2.322-0.503,4.191-1.508,5.607c-1.006,1.417-2.357,2.379-4.057,2.889l5.564,10.322c0.142,0.17,0.212,0.397,0.212,0.68
			c0,0.708-0.368,1.366-1.104,1.975c-0.735,0.609-1.516,0.914-2.336,0.914c-0.821,0-1.459-0.439-1.911-1.316l-6.033-11.725h-3.567
			v11.087c0,0.538-0.27,0.963-0.808,1.274c-0.538,0.313-1.188,0.467-1.953,0.467c-0.737,0-1.381-0.154-1.933-0.467
			C285.911,233.694,285.634,233.269,285.634,232.731z M291.156,217.311h4.673c3.029,0,4.545-1.501,4.545-4.503
			c0-3.029-1.516-4.545-4.545-4.545h-4.673V217.311z"/>
		<path d="M311.546,225v-11.853c0-3.341,0.898-5.799,2.698-7.37c1.798-1.571,4.155-2.357,7.072-2.357
			c3.001,0,5.443,0.736,7.327,2.209c1.883,1.473,2.825,3.455,2.825,5.947c0,1.019-0.22,1.713-0.658,2.081
			c-0.439,0.368-1.141,0.553-2.103,0.553c-1.813,0-2.733-0.58-2.761-1.742c-0.086-1.246-0.44-2.258-1.063-3.037
			c-0.623-0.778-1.741-1.168-3.356-1.168c-2.973,0-4.46,1.628-4.46,4.885V225c0,3.257,1.473,4.884,4.418,4.884
			c1.416,0,2.513-0.41,3.292-1.231c0.778-0.82,1.169-2.039,1.169-3.652v-2.508h-3.441c-0.538,0-0.956-0.212-1.254-0.637
			c-0.297-0.425-0.445-0.935-0.445-1.529c0-0.565,0.155-1.068,0.467-1.507c0.313-0.439,0.723-0.659,1.232-0.659h7.221
			c0.538,0,0.964,0.177,1.274,0.531c0.313,0.354,0.468,0.771,0.468,1.253V225c0,3.369-0.906,5.833-2.719,7.392
			c-1.813,1.558-4.233,2.336-7.264,2.336c-3.031,0-5.444-0.778-7.242-2.336C312.444,230.833,311.546,228.37,311.546,225z"/>
		<path d="M337.883,232.731v-27.569c0-0.538,0.24-0.962,0.722-1.273s1.048-0.468,1.699-0.468h15.123c0.566,0,0.998,0.24,1.296,0.722
			s0.446,1.034,0.446,1.657c0,0.68-0.156,1.26-0.468,1.741s-0.736,0.723-1.274,0.723h-12.022v8.495h6.457
			c0.538,0,0.964,0.22,1.274,0.658c0.313,0.44,0.468,0.957,0.468,1.551c0,0.539-0.148,1.027-0.445,1.466
			c-0.298,0.439-0.73,0.658-1.297,0.658h-6.457v8.539h12.022c0.538,0,0.963,0.24,1.274,0.722s0.468,1.062,0.468,1.742
			c0,0.623-0.148,1.175-0.446,1.656s-0.729,0.722-1.296,0.722h-15.123c-0.651,0-1.218-0.154-1.699-0.467
			C338.123,233.694,337.883,233.269,337.883,232.731z"/>
		<path d="M362.437,232.731v-27.569c0-0.566,0.268-0.997,0.807-1.295c0.537-0.298,1.188-0.446,1.953-0.446
			c1.02,0,1.799,0.185,2.337,0.552c0.537,0.369,1.132,1.162,1.784,2.38l8.198,15.844V205.12c0-0.566,0.269-0.991,0.808-1.275
			c0.537-0.282,1.188-0.424,1.953-0.424s1.416,0.142,1.955,0.424c0.538,0.284,0.807,0.709,0.807,1.275v27.611
			c0,0.538-0.276,0.963-0.828,1.274c-0.553,0.313-1.197,0.467-1.934,0.467c-1.5,0-2.563-0.58-3.185-1.741l-9.134-17.077v17.077
			c0,0.538-0.275,0.963-0.828,1.274c-0.553,0.313-1.197,0.467-1.934,0.467c-0.765,0-1.416-0.154-1.953-0.467
			C362.704,233.694,362.437,233.269,362.437,232.731z"/>
		<path d="M388.136,205.821c0-0.634,0.148-1.192,0.446-1.676c0.297-0.483,0.729-0.725,1.296-0.725h17.968
			c0.566,0,0.999,0.241,1.296,0.725s0.446,1.042,0.446,1.676c0,0.663-0.156,1.235-0.468,1.718c-0.311,0.483-0.736,0.725-1.274,0.725
			h-6.201v24.459c0,0.542-0.276,0.969-0.828,1.281c-0.553,0.313-1.197,0.469-1.934,0.469c-0.765,0-1.416-0.155-1.954-0.469
			c-0.538-0.313-0.807-0.739-0.807-1.281v-24.459h-6.244c-0.539,0-0.964-0.234-1.275-0.703
			C388.291,207.09,388.136,206.511,388.136,205.821z"/>
		<path d="M414.643,232.731V205.12c0-0.566,0.269-0.991,0.808-1.275c0.536-0.282,1.188-0.424,1.953-0.424s1.416,0.142,1.954,0.424
			c0.538,0.284,0.807,0.709,0.807,1.275v27.611c0,0.538-0.275,0.963-0.828,1.274c-0.552,0.313-1.196,0.467-1.933,0.467
			c-0.765,0-1.417-0.154-1.953-0.467C414.911,233.694,414.643,233.269,414.643,232.731z"/>
		<path d="M427.302,232.731v-27.569c0-0.566,0.268-0.997,0.807-1.295c0.537-0.298,1.188-0.446,1.953-0.446
			c1.021,0,1.799,0.185,2.338,0.552c0.537,0.369,1.132,1.162,1.783,2.38l8.198,15.844V205.12c0-0.566,0.27-0.991,0.808-1.275
			c0.537-0.282,1.189-0.424,1.954-0.424s1.415,0.142,1.954,0.424c0.538,0.284,0.807,0.709,0.807,1.275v27.611
			c0,0.538-0.276,0.963-0.828,1.274c-0.552,0.313-1.196,0.467-1.933,0.467c-1.501,0-2.563-0.58-3.186-1.741l-9.134-17.077v17.077
			c0,0.538-0.275,0.963-0.828,1.274c-0.553,0.313-1.197,0.467-1.934,0.467c-0.765,0-1.416-0.154-1.953-0.467
			C427.569,233.694,427.302,233.269,427.302,232.731z"/>
		<path d="M452.217,232.021c0-0.061,0.028-0.212,0.086-0.455l8.206-26.717c0.17-0.535,0.588-0.95,1.253-1.244
			c0.666-0.293,1.424-0.439,2.273-0.439s1.614,0.163,2.294,0.488c0.68,0.326,1.104,0.786,1.274,1.381l8.198,26.719
			c0.057,0.228,0.085,0.369,0.085,0.425c0,0.624-0.383,1.162-1.147,1.615c-0.764,0.452-1.543,0.679-2.336,0.679
			c-1.048,0-1.671-0.367-1.869-1.104l-1.613-5.65h-9.103l-1.582,5.652c-0.224,0.734-0.926,1.102-2.105,1.102
			c-0.926,0-1.81-0.233-2.651-0.703C452.639,233.299,452.217,232.717,452.217,232.021z M461.032,223.385h7.346l-3.695-13.04
			L461.032,223.385z"/>
		<path d="M492.039,232.774V205.12c0-0.452,0.227-0.85,0.68-1.189c0.452-0.34,1.034-0.51,1.741-0.51h7.52
			c3.03,0,5.451,0.779,7.264,2.336c1.813,1.559,2.719,4.022,2.719,7.392v11.597c0,3.371-0.906,5.835-2.719,7.392
			c-1.813,1.558-4.233,2.336-7.264,2.336h-7.52c-0.707,0-1.289-0.169-1.741-0.509C492.266,233.623,492.039,233.227,492.039,232.774z
			 M497.562,229.63h4.418c2.973,0,4.46-1.629,4.46-4.886v-11.597c0-3.257-1.487-4.885-4.46-4.885h-4.418V229.63z"/>
		<path d="M518.716,232.731v-27.569c0-0.538,0.239-0.962,0.722-1.273c0.48-0.312,1.047-0.468,1.699-0.468h15.122
			c0.566,0,0.999,0.24,1.296,0.722c0.298,0.481,0.446,1.034,0.446,1.657c0,0.68-0.155,1.26-0.467,1.741
			c-0.313,0.481-0.737,0.723-1.275,0.723h-12.021v8.495h6.457c0.538,0,0.963,0.22,1.274,0.658c0.312,0.44,0.467,0.957,0.467,1.551
			c0,0.539-0.147,1.027-0.445,1.466c-0.297,0.439-0.729,0.658-1.296,0.658h-6.457v8.539h12.021c0.538,0,0.963,0.24,1.275,0.722
			c0.312,0.481,0.467,1.062,0.467,1.742c0,0.623-0.148,1.175-0.446,1.656c-0.297,0.481-0.729,0.722-1.296,0.722h-15.122
			c-0.652,0-1.219-0.154-1.699-0.467C518.955,233.694,518.716,233.269,518.716,232.731z"/>
		<path d="M12.691,255.001c0-0.585,0.137-1.099,0.41-1.543c0.274-0.444,0.671-0.667,1.193-0.667h16.537
			c0.521,0,0.919,0.223,1.192,0.667s0.41,0.958,0.41,1.543c0,0.609-0.144,1.135-0.43,1.58c-0.287,0.444-0.678,0.666-1.172,0.666
			h-5.708v22.512c0,0.497-0.254,0.891-0.762,1.179c-0.508,0.289-1.102,0.432-1.779,0.432c-0.704,0-1.304-0.143-1.799-0.432
			c-0.495-0.288-0.743-0.682-0.743-1.179v-22.512h-5.747c-0.496,0-0.887-0.216-1.173-0.647
			C12.833,256.168,12.691,255.636,12.691,255.001z"/>
		<path d="M36.382,279.766v-25.411c0-0.417,0.156-0.782,0.469-1.095c0.313-0.313,0.703-0.469,1.172-0.469h7.741
			c6.177,0,9.266,2.724,9.266,8.171c0,2.137-0.463,3.857-1.388,5.16c-0.926,1.304-2.17,2.19-3.733,2.658l5.121,9.501
			c0.13,0.156,0.196,0.365,0.196,0.625c0,0.652-0.339,1.258-1.017,1.818c-0.678,0.561-1.395,0.84-2.15,0.84
			c-0.756,0-1.343-0.403-1.76-1.212l-5.552-10.79h-3.284v10.203c0,0.496-0.248,0.888-0.743,1.174
			c-0.495,0.287-1.095,0.43-1.798,0.43c-0.678,0-1.271-0.143-1.779-0.43C36.636,280.654,36.382,280.262,36.382,279.766z
			 M41.464,265.576h4.3c2.789,0,4.184-1.382,4.184-4.145c0-2.788-1.395-4.184-4.184-4.184h-4.3V265.576z"/>
		<path d="M57.242,279.114c0-0.057,0.026-0.195,0.078-0.418l7.554-24.59c0.156-0.493,0.54-0.875,1.153-1.145
			c0.612-0.27,1.31-0.405,2.091-0.405c0.782,0,1.486,0.151,2.111,0.45c0.625,0.3,1.017,0.724,1.173,1.271l7.546,24.591
			c0.052,0.209,0.078,0.339,0.078,0.391c0,0.574-0.352,1.068-1.056,1.486c-0.704,0.417-1.421,0.625-2.15,0.625
			c-0.964,0-1.538-0.339-1.72-1.017l-1.485-5.199h-8.376l-1.457,5.202c-0.206,0.676-0.852,1.014-1.938,1.014
			c-0.852,0-1.666-0.216-2.44-0.646C57.629,280.291,57.242,279.754,57.242,279.114z M65.354,271.166h6.76l-3.401-12.002
			L65.354,271.166z"/>
		<path d="M83.491,279.805v-25.45c0-0.417,0.208-0.782,0.625-1.095c0.417-0.313,0.952-0.469,1.603-0.469h6.92
			c2.788,0,5.017,0.717,6.685,2.149c1.667,1.435,2.502,3.702,2.502,6.803v10.673c0,3.104-0.835,5.369-2.502,6.803
			c-1.668,1.435-3.897,2.15-6.685,2.15h-6.92c-0.651,0-1.186-0.156-1.603-0.469C83.7,280.588,83.491,280.222,83.491,279.805z
			 M88.573,276.914h4.066c2.736,0,4.105-1.499,4.105-4.497v-10.673c0-2.996-1.369-4.496-4.105-4.496h-4.066V276.914z"/>
		<path d="M107.222,272.651v-18.296c0-0.521,0.247-0.911,0.743-1.172c0.495-0.261,1.094-0.392,1.798-0.392
			c0.704,0,1.303,0.131,1.798,0.392s0.743,0.65,0.743,1.172v18.296c0,2.998,1.434,4.496,4.301,4.496
			c2.867,0,4.301-1.498,4.301-4.496v-18.296c0-0.521,0.248-0.911,0.742-1.172c0.495-0.261,1.095-0.392,1.799-0.392
			s1.303,0.131,1.798,0.392c0.495,0.261,0.743,0.65,0.743,1.172v18.296c0,3.076-0.854,5.337-2.561,6.784
			c-1.708,1.446-3.981,2.169-6.822,2.169c-2.841,0-5.115-0.716-6.822-2.15C108.075,278.021,107.222,275.753,107.222,272.651z"/>
		<path d="M131.46,272.651v-10.907c0-3.074,0.834-5.336,2.502-6.782c1.667-1.447,3.844-2.17,6.529-2.17
			c2.736,0,4.971,0.678,6.704,2.032c1.733,1.356,2.6,3.154,2.6,5.396c0,0.964-0.195,1.622-0.586,1.974s-1.043,0.528-1.955,0.528
			c-1.668,0-2.516-0.535-2.541-1.604c-0.027-0.339-0.059-0.632-0.098-0.88c-0.039-0.247-0.144-0.573-0.313-0.978
			c-0.169-0.403-0.384-0.742-0.645-1.016c-0.261-0.273-0.652-0.509-1.173-0.703c-0.522-0.197-1.134-0.295-1.838-0.295
			c-2.736,0-4.104,1.5-4.104,4.496v10.907c0,2.998,1.394,4.496,4.183,4.496c0.834,0,1.531-0.13,2.091-0.391
			c0.56-0.26,0.964-0.631,1.212-1.113c0.248-0.483,0.417-0.913,0.508-1.291c0.091-0.377,0.149-0.84,0.176-1.387
			c0.078-1.07,0.912-1.604,2.502-1.604c0.912,0,1.569,0.177,1.974,0.528c0.404,0.352,0.606,1.011,0.606,1.975
			c0,2.346-0.867,4.223-2.6,5.629c-1.733,1.408-3.981,2.111-6.743,2.111c-2.685,0-4.855-0.723-6.509-2.169
			C132.288,277.988,131.46,275.727,131.46,272.651z"/>
		<path d="M152.532,255.001c0-0.585,0.137-1.099,0.411-1.543s0.67-0.667,1.192-0.667h16.537c0.521,0,0.918,0.223,1.192,0.667
			s0.411,0.958,0.411,1.543c0,0.609-0.144,1.135-0.43,1.58c-0.288,0.444-0.678,0.666-1.173,0.666h-5.708v22.512
			c0,0.497-0.253,0.891-0.762,1.179c-0.509,0.289-1.102,0.432-1.779,0.432c-0.704,0-1.304-0.143-1.798-0.432
			c-0.496-0.288-0.743-0.682-0.743-1.179v-22.512h-5.747c-0.496,0-0.887-0.216-1.173-0.647S152.532,255.636,152.532,255.001z"/>
		<path d="M175.442,272.651v-10.907c0-3.101,0.827-5.368,2.482-6.803c1.656-1.433,3.876-2.149,6.667-2.149
			c2.788,0,5.017,0.717,6.685,2.149c1.667,1.435,2.502,3.702,2.502,6.803v10.907c0,3.103-0.834,5.37-2.502,6.803
			c-1.668,1.435-3.897,2.15-6.685,2.15c-2.79,0-5.011-0.716-6.667-2.15C176.27,278.021,175.442,275.753,175.442,272.651z
			 M180.524,272.651c0,2.998,1.355,4.496,4.066,4.496c2.736,0,4.104-1.498,4.104-4.496v-10.907c0-2.996-1.368-4.496-4.104-4.496
			c-2.711,0-4.066,1.5-4.066,4.496V272.651z"/>
		<path d="M199.29,279.766v-25.411c0-0.417,0.156-0.782,0.469-1.095s0.704-0.469,1.173-0.469h7.741c6.177,0,9.266,2.724,9.266,8.171
			c0,2.137-0.463,3.857-1.388,5.16c-0.925,1.304-2.169,2.19-3.733,2.658l5.121,9.501c0.13,0.156,0.196,0.365,0.196,0.625
			c0,0.652-0.34,1.258-1.017,1.818c-0.679,0.561-1.395,0.84-2.15,0.84c-0.756,0-1.343-0.403-1.759-1.212l-5.551-10.79h-3.284v10.203
			c0,0.496-0.248,0.888-0.743,1.174c-0.495,0.287-1.094,0.43-1.798,0.43c-0.678,0-1.271-0.143-1.778-0.43
			C199.543,280.654,199.29,280.262,199.29,279.766z M204.372,265.576h4.3c2.789,0,4.184-1.382,4.184-4.145
			c0-2.788-1.395-4.184-4.184-4.184h-4.3V265.576z"/>
		<path d="M222.747,279.766v-25.373c0-0.493,0.221-0.885,0.665-1.172c0.443-0.286,0.964-0.43,1.564-0.43h13.917
			c0.521,0,0.919,0.222,1.192,0.665c0.274,0.443,0.411,0.951,0.411,1.524c0,0.625-0.144,1.159-0.43,1.602
			c-0.288,0.443-0.679,0.665-1.173,0.665h-11.064v7.819h5.943c0.495,0,0.886,0.203,1.173,0.606c0.287,0.404,0.43,0.88,0.43,1.427
			c0,0.495-0.137,0.945-0.41,1.35c-0.273,0.403-0.671,0.604-1.192,0.604h-5.943v7.859h11.064c0.495,0,0.886,0.221,1.173,0.663
			c0.286,0.444,0.43,0.979,0.43,1.604c0,0.574-0.137,1.082-0.411,1.525c-0.273,0.443-0.671,0.664-1.192,0.664h-13.917
			c-0.6,0-1.121-0.143-1.564-0.43C222.968,280.654,222.747,280.262,222.747,279.766z"/>
		<path d="M243.232,276.874c0-0.6,0.228-1.204,0.684-1.818c0.456-0.611,0.971-0.918,1.544-0.918c0.338,0,0.723,0.162,1.153,0.487
			c0.43,0.325,0.847,0.684,1.25,1.077c0.404,0.393,0.984,0.751,1.74,1.075c0.756,0.325,1.59,0.488,2.502,0.488
			c1.251,0,2.293-0.287,3.128-0.86c0.833-0.573,1.25-1.42,1.25-2.541c0-0.782-0.228-1.479-0.684-2.092
			c-0.457-0.611-1.056-1.12-1.798-1.525c-0.743-0.403-1.558-0.795-2.443-1.172c-0.887-0.377-1.778-0.802-2.678-1.271
			c-0.899-0.47-1.72-0.998-2.463-1.584c-0.743-0.586-1.342-1.368-1.799-2.346c-0.456-0.977-0.684-2.092-0.684-3.343
			c0-1.401,0.279-2.638,0.841-3.71c0.56-1.071,1.31-1.905,2.248-2.5c0.938-0.595,1.941-1.031,3.011-1.309
			c1.068-0.277,2.202-0.417,3.401-0.417c0.677,0,1.394,0.047,2.15,0.141c0.756,0.094,1.557,0.248,2.404,0.462
			c0.847,0.214,1.538,0.549,2.072,1.003c0.534,0.454,0.801,0.99,0.801,1.606c0,0.58-0.183,1.181-0.547,1.801
			c-0.366,0.62-0.86,0.93-1.485,0.93c-0.235,0-0.874-0.247-1.916-0.743c-1.043-0.496-2.203-0.743-3.479-0.743
			c-1.407,0-2.496,0.268-3.264,0.802c-0.77,0.534-1.153,1.271-1.153,2.209c0,0.756,0.313,1.413,0.938,1.974
			c0.625,0.562,1.4,1.017,2.326,1.369c0.925,0.352,1.929,0.795,3.01,1.329c1.082,0.535,2.085,1.114,3.011,1.74
			c0.925,0.625,1.7,1.531,2.326,2.716c0.625,1.188,0.938,2.575,0.938,4.164c0,2.673-0.854,4.736-2.561,6.188
			c-1.708,1.453-3.955,2.178-6.745,2.178c-2.476,0-4.6-0.508-6.373-1.524C244.118,279.18,243.232,278.074,243.232,276.874z"/>
		<path d="M275.211,279.766v-25.373c0-0.493,0.222-0.885,0.665-1.172c0.443-0.286,0.964-0.43,1.563-0.43h13.917
			c0.521,0,0.919,0.222,1.192,0.665c0.274,0.443,0.411,0.951,0.411,1.524c0,0.625-0.145,1.159-0.431,1.602
			c-0.287,0.443-0.678,0.665-1.173,0.665h-11.063v7.819h5.942c0.495,0,0.886,0.203,1.174,0.606c0.285,0.404,0.43,0.88,0.43,1.427
			c0,0.495-0.137,0.945-0.411,1.35c-0.273,0.403-0.671,0.604-1.192,0.604h-5.942v7.859h11.063c0.495,0,0.886,0.221,1.173,0.663
			c0.286,0.444,0.431,0.979,0.431,1.604c0,0.574-0.137,1.082-0.411,1.525c-0.273,0.443-0.671,0.664-1.192,0.664H277.44
			c-0.6,0-1.121-0.143-1.563-0.43C275.433,280.654,275.211,280.262,275.211,279.766z"/>
		<path d="M306.096,279.766v-25.411c0-0.521,0.248-0.911,0.743-1.172s1.095-0.392,1.799-0.392s1.304,0.131,1.798,0.392
			c0.495,0.261,0.743,0.65,0.743,1.172v25.411c0,0.496-0.255,0.888-0.762,1.174c-0.509,0.287-1.102,0.43-1.779,0.43
			c-0.704,0-1.304-0.143-1.799-0.43C306.344,280.654,306.096,280.262,306.096,279.766z"/>
		<path d="M317.043,279.766v-25.373c0-0.521,0.247-0.918,0.742-1.191s1.095-0.41,1.799-0.41c0.938,0,1.654,0.17,2.149,0.508
			c0.496,0.34,1.043,1.068,1.643,2.189l7.545,14.582v-15.716c0-0.521,0.247-0.911,0.743-1.172c0.495-0.261,1.095-0.392,1.798-0.392
			c0.704,0,1.303,0.131,1.8,0.392c0.493,0.261,0.741,0.65,0.741,1.172v25.411c0,0.496-0.253,0.888-0.762,1.174
			c-0.508,0.287-1.102,0.43-1.779,0.43c-1.381,0-2.358-0.533-2.932-1.604l-8.405-15.716v15.716c0,0.496-0.255,0.888-0.763,1.174
			c-0.509,0.287-1.102,0.43-1.778,0.43c-0.704,0-1.304-0.143-1.799-0.43C317.29,280.654,317.043,280.262,317.043,279.766z"/>
		<path d="M339.992,255.001c0-0.585,0.137-1.099,0.41-1.543s0.67-0.667,1.191-0.667h16.538c0.521,0,0.918,0.223,1.191,0.667
			s0.41,0.958,0.41,1.543c0,0.609-0.143,1.135-0.43,1.58c-0.287,0.444-0.677,0.666-1.172,0.666h-5.709v22.512
			c0,0.497-0.254,0.891-0.762,1.179c-0.508,0.289-1.101,0.432-1.779,0.432c-0.703,0-1.304-0.143-1.797-0.432
			c-0.496-0.288-0.744-0.682-0.744-1.179v-22.512h-5.747c-0.495,0-0.886-0.216-1.173-0.647
			C340.135,256.168,339.992,255.636,339.992,255.001z"/>
		<path d="M363.683,279.766v-25.373c0-0.493,0.222-0.885,0.665-1.172c0.442-0.286,0.964-0.43,1.563-0.43h13.918
			c0.521,0,0.919,0.222,1.193,0.665c0.273,0.443,0.41,0.951,0.41,1.524c0,0.625-0.145,1.159-0.431,1.602
			c-0.287,0.443-0.679,0.665-1.173,0.665h-11.063v7.819h5.941c0.495,0,0.887,0.203,1.174,0.606c0.286,0.404,0.431,0.88,0.431,1.427
			c0,0.495-0.137,0.945-0.411,1.35c-0.273,0.403-0.672,0.604-1.193,0.604h-5.941v7.859h11.063c0.494,0,0.886,0.221,1.173,0.663
			c0.286,0.444,0.431,0.979,0.431,1.604c0,0.574-0.137,1.082-0.41,1.525c-0.274,0.443-0.672,0.664-1.193,0.664h-13.918
			c-0.6,0-1.121-0.143-1.563-0.43C363.904,280.654,363.683,280.262,363.683,279.766z M369.353,247.749
			c0-0.574,0.22-0.978,0.663-1.213l5.161-2.502c0.26-0.052,0.431-0.078,0.508-0.078c0.417,0,0.782,0.201,1.095,0.605
			c0.313,0.406,0.469,0.842,0.469,1.31c0,0.574-0.233,0.965-0.703,1.174l-5.082,2.463c-0.261,0.104-0.442,0.156-0.548,0.156
			c-0.417,0-0.782-0.209-1.095-0.626C369.508,248.622,369.353,248.192,369.353,247.749z"/>
		<path d="M385.537,279.766v-25.411c0-0.417,0.156-0.782,0.47-1.095c0.313-0.313,0.704-0.469,1.172-0.469h7.741
			c6.178,0,9.267,2.724,9.267,8.171c0,2.137-0.464,3.857-1.389,5.16c-0.925,1.304-2.17,2.19-3.733,2.658l5.122,9.501
			c0.13,0.156,0.195,0.365,0.195,0.625c0,0.652-0.339,1.258-1.018,1.818c-0.678,0.561-1.394,0.84-2.149,0.84
			c-0.757,0-1.343-0.403-1.759-1.212l-5.552-10.79h-3.285v10.203c0,0.496-0.247,0.888-0.742,1.174
			c-0.495,0.287-1.094,0.43-1.798,0.43c-0.679,0-1.271-0.143-1.778-0.43C385.791,280.654,385.537,280.262,385.537,279.766z
			 M390.619,265.576h4.301c2.789,0,4.184-1.382,4.184-4.145c0-2.788-1.395-4.184-4.184-4.184h-4.301V265.576z"/>
		<path d="M408.993,279.766v-25.411c0-0.417,0.177-0.782,0.528-1.095s0.814-0.469,1.387-0.469h7.859c2.684,0,4.834,0.711,6.45,2.131
			s2.425,3.643,2.425,6.665v0.234c0,3.05-0.841,5.291-2.522,6.725s-3.903,2.15-6.666,2.15h-4.378v9.069
			c0,0.496-0.255,0.888-0.763,1.174c-0.509,0.287-1.102,0.43-1.778,0.43c-0.705,0-1.304-0.143-1.799-0.43
			C409.241,280.654,408.993,280.262,408.993,279.766z M414.076,266.708h4.378c1.304,0,2.313-0.377,3.03-1.133
			s1.075-1.877,1.075-3.363v-0.469c0-1.485-0.358-2.606-1.075-3.361c-0.717-0.756-1.727-1.135-3.03-1.135h-4.378V266.708z"/>
		<path d="M431.942,279.766v-25.411c0-0.417,0.156-0.782,0.469-1.095s0.704-0.469,1.172-0.469h7.741
			c6.178,0,9.267,2.724,9.267,8.171c0,2.137-0.463,3.857-1.389,5.16c-0.925,1.304-2.17,2.19-3.733,2.658l5.122,9.501
			c0.13,0.156,0.195,0.365,0.195,0.625c0,0.652-0.339,1.258-1.017,1.818c-0.679,0.561-1.396,0.84-2.15,0.84
			c-0.757,0-1.343-0.403-1.759-1.212l-5.552-10.79h-3.284v10.203c0,0.496-0.248,0.888-0.743,1.174
			c-0.495,0.287-1.095,0.43-1.798,0.43c-0.679,0-1.271-0.143-1.778-0.43C432.196,280.654,431.942,280.262,431.942,279.766z
			 M437.024,265.576h4.3c2.789,0,4.184-1.382,4.184-4.145c0-2.788-1.395-4.184-4.184-4.184h-4.3V265.576z"/>
		<path d="M455.397,279.766v-25.373c0-0.493,0.222-0.885,0.665-1.172c0.442-0.286,0.964-0.43,1.564-0.43h13.917
			c0.521,0,0.919,0.222,1.193,0.665c0.273,0.443,0.41,0.951,0.41,1.524c0,0.625-0.144,1.159-0.432,1.602
			c-0.286,0.443-0.677,0.665-1.172,0.665H460.48v7.819h5.942c0.494,0,0.886,0.203,1.172,0.606c0.287,0.404,0.432,0.88,0.432,1.427
			c0,0.495-0.137,0.945-0.411,1.35c-0.273,0.403-0.671,0.604-1.192,0.604h-5.942v7.859h11.063c0.495,0,0.886,0.221,1.172,0.663
			c0.288,0.444,0.432,0.979,0.432,1.604c0,0.574-0.137,1.082-0.41,1.525c-0.274,0.443-0.672,0.664-1.193,0.664h-13.917
			c-0.601,0-1.122-0.143-1.564-0.43C455.619,280.654,455.397,280.262,455.397,279.766z"/>
		<path d="M475.415,255.001c0-0.585,0.137-1.099,0.41-1.543s0.67-0.667,1.191-0.667h16.538c0.521,0,0.918,0.223,1.192,0.667
			c0.273,0.444,0.41,0.958,0.41,1.543c0,0.609-0.144,1.135-0.43,1.58c-0.287,0.444-0.678,0.666-1.173,0.666h-5.708v22.512
			c0,0.497-0.255,0.891-0.763,1.179c-0.507,0.289-1.101,0.432-1.778,0.432c-0.703,0-1.304-0.143-1.798-0.432
			c-0.496-0.288-0.743-0.682-0.743-1.179v-22.512h-5.748c-0.494,0-0.886-0.216-1.172-0.647S475.415,255.636,475.415,255.001z"/>
		<path d="M499.107,279.766v-25.373c0-0.493,0.221-0.885,0.664-1.172c0.442-0.286,0.964-0.43,1.564-0.43h13.917
			c0.521,0,0.919,0.222,1.193,0.665c0.273,0.443,0.41,0.951,0.41,1.524c0,0.625-0.144,1.159-0.43,1.602
			c-0.288,0.443-0.679,0.665-1.174,0.665h-11.063v7.819h5.942c0.495,0,0.886,0.203,1.173,0.606c0.287,0.404,0.431,0.88,0.431,1.427
			c0,0.495-0.137,0.945-0.41,1.35c-0.274,0.403-0.672,0.604-1.193,0.604h-5.942v7.859h11.063c0.495,0,0.886,0.221,1.174,0.663
			c0.286,0.444,0.43,0.979,0.43,1.604c0,0.574-0.137,1.082-0.41,1.525c-0.274,0.443-0.672,0.664-1.193,0.664h-13.917
			c-0.601,0-1.122-0.143-1.564-0.43C499.328,280.654,499.107,280.262,499.107,279.766z"/>
		<path d="M519.594,276.874c0-0.6,0.228-1.204,0.684-1.818c0.455-0.611,0.97-0.918,1.544-0.918c0.339,0,0.724,0.162,1.153,0.487
			s0.846,0.684,1.252,1.077c0.402,0.393,0.982,0.751,1.738,1.075c0.757,0.325,1.59,0.488,2.502,0.488
			c1.252,0,2.294-0.287,3.129-0.86c0.834-0.573,1.25-1.42,1.25-2.541c0-0.782-0.229-1.479-0.684-2.092
			c-0.456-0.611-1.056-1.12-1.798-1.525c-0.743-0.403-1.56-0.795-2.444-1.172c-0.886-0.377-1.778-0.802-2.678-1.271
			c-0.899-0.47-1.721-0.998-2.464-1.584c-0.741-0.586-1.342-1.368-1.798-2.346c-0.456-0.977-0.684-2.092-0.684-3.343
			c0-1.401,0.279-2.638,0.84-3.71c0.561-1.071,1.311-1.905,2.248-2.5c0.938-0.595,1.941-1.031,3.011-1.309
			c1.068-0.277,2.202-0.417,3.401-0.417c0.677,0,1.394,0.047,2.15,0.141c0.756,0.094,1.557,0.248,2.404,0.462
			c0.847,0.214,1.537,0.549,2.071,1.003c0.535,0.454,0.802,0.99,0.802,1.606c0,0.58-0.183,1.181-0.547,1.801
			c-0.365,0.62-0.86,0.93-1.485,0.93c-0.235,0-0.874-0.247-1.917-0.743c-1.042-0.496-2.202-0.743-3.479-0.743
			c-1.407,0-2.496,0.268-3.264,0.802c-0.771,0.534-1.154,1.271-1.154,2.209c0,0.756,0.313,1.413,0.938,1.974
			c0.627,0.562,1.401,1.017,2.326,1.369c0.926,0.352,1.93,0.795,3.012,1.329c1.081,0.535,2.084,1.114,3.01,1.74
			c0.925,0.625,1.7,1.531,2.326,2.716c0.626,1.188,0.938,2.575,0.938,4.164c0,2.673-0.854,4.736-2.562,6.188
			c-1.707,1.453-3.955,2.178-6.744,2.178c-2.477,0-4.599-0.508-6.371-1.524C520.479,279.18,519.594,278.074,519.594,276.874z"/>
	</g>
	<g>
		<path d="M237.328,153.51l-8.292,24.876h-22.061L247.81,64.643h21.904l40.835,113.744h-23.155l-28.163-84.644l-1.251-5.789
			l-1.408,6.102l-13.298,40.522l-1.878,3.129l2.347-0.313h11.891c2.293,0,4.276,0.523,5.945,1.565
			c1.667,1.043,3.129,2.347,4.381,3.911c1.251,1.565,2.32,3.313,3.208,5.241c0.885,1.932,1.589,3.73,2.112,5.398H237.328z"/>
		<path d="M350.287,153.51l-8.292,24.876h-22.061L360.77,64.643h21.904l40.836,113.744h-23.156l-28.162-84.644l-1.252-5.789
			l-1.408,6.102l-13.299,40.522l-1.877,3.129l2.346-0.313h11.892c2.293,0,4.275,0.523,5.945,1.565
			c1.667,1.043,3.129,2.347,4.381,3.911c1.251,1.565,2.32,3.313,3.208,5.241c0.885,1.932,1.589,3.73,2.111,5.398H350.287z"/>
		<path d="M420.377,80.758V64.643h81.671v16.115h-29.727v97.629h-22.217V80.758H420.377z"/>
		<path d="M538.033,178.387h-21.904V64.643h21.904V178.387z"/>
	</g>
	<linearGradient id="SVGID_1_" gradientUnits="userSpaceOnUse" x1="117.4053" y1="183.2583" x2="125.2178" y2="17.2431">
		<stop  offset="0" style="stop-color:#0C336D"/>
		<stop  offset="0.2475" style="stop-color:#19468E"/>
		<stop  offset="0.2896" style="stop-color:#1E4E93"/>
		<stop  offset="0.3946" style="stop-color:#285D9E"/>
		<stop  offset="0.482" style="stop-color:#2D67A4"/>
		<stop  offset="0.5404" style="stop-color:#2F6AA7"/>
		<stop  offset="0.6383" style="stop-color:#157EB0"/>
		<stop  offset="0.7929" style="stop-color:#0096B5"/>
		<stop  offset="0.9949" style="stop-color:#81BCD6"/>
	</linearGradient>
	<path fill="url(#SVGID_1_)" d="M81.25,45.767c-56.56,43.067-67.364,132.62-67.364,132.62h13.399
		C68.523-7.904,210.974,29.736,210.974,29.736s5.706-3.502,8.885-5.363c3.185-1.869,8.996-4.77,8.996-4.77
		C200.212,7.469,140.018,1.008,81.25,45.767z"/>
	<linearGradient id="SVGID_2_" gradientUnits="userSpaceOnUse" x1="121.4111" y1="183.6055" x2="129.2236" y2="17.5927">
		<stop  offset="0" style="stop-color:#0C336D"/>
		<stop  offset="0.2475" style="stop-color:#19468E"/>
		<stop  offset="0.2896" style="stop-color:#1E4E93"/>
		<stop  offset="0.3946" style="stop-color:#285D9E"/>
		<stop  offset="0.482" style="stop-color:#2D67A4"/>
		<stop  offset="0.5404" style="stop-color:#2F6AA7"/>
		<stop  offset="0.6383" style="stop-color:#157EB0"/>
		<stop  offset="0.7929" style="stop-color:#0096B5"/>
		<stop  offset="0.9949" style="stop-color:#81BCD6"/>
	</linearGradient>
	<path fill="url(#SVGID_2_)" d="M198.364,38.872c-16.488,1.362-47.938,7.168-82.129,30.278
		c-50.039,33.809-64.72,109.237-64.72,109.237h83.095c0,0,0.585-60.684,25.59-95.784C185.202,47.508,198.364,38.872,198.364,38.872z
		"/>
	<g>
		<linearGradient id="SVGID_3_" gradientUnits="userSpaceOnUse" x1="254.8076" y1="189.8833" x2="262.6201" y2="23.8688">
			<stop  offset="0" style="stop-color:#0C336D"/>
			<stop  offset="0.2475" style="stop-color:#19468E"/>
			<stop  offset="0.2896" style="stop-color:#1E4E93"/>
			<stop  offset="0.3946" style="stop-color:#285D9E"/>
			<stop  offset="0.482" style="stop-color:#2D67A4"/>
			<stop  offset="0.5404" style="stop-color:#2F6AA7"/>
			<stop  offset="0.6383" style="stop-color:#157EB0"/>
			<stop  offset="0.7929" style="stop-color:#0096B5"/>
			<stop  offset="0.9949" style="stop-color:#81BCD6"/>
		</linearGradient>
		<path fill="url(#SVGID_3_)" d="M165.528,178.387h-21.484c0,0-4.326-110.443,95.501-153.08
			c99.831-42.642,133.299,26.889,133.299,26.889S318.04,8.602,241.954,45.314c-76.102,36.718-76.433,130.429-76.433,130.429
			L165.528,178.387z"/>
	</g>
</g>
</svg>
