<svg height="511pt" viewBox="-34 1 511 511.99972" width="511pt" xmlns="http://www.w3.org/2000/svg"><path d="m40.910156 409.300781h159.675782v30.90625h-159.675782c-8.535156 0-15.453125-6.917969-15.453125-15.453125s6.917969-15.453125 15.453125-15.453125zm0 0" fill="#46525e"/><path d="m29.628906 325.867188 25.382813 25.382812c4.671875 4.671875 12.246093 4.671875 16.917969 0l33.84375-33.84375c4.675781-4.671875 4.675781-12.25 0-16.921875l-25.382813-25.382813c-4.671875-4.671874-12.246094-4.671874-16.917969 0l-33.84375 33.84375c-4.675781 4.671876-4.675781 12.25 0 16.921876zm0 0" fill="#46525e"/><path d="m89.699219 189.644531c-28.261719 28.261719-28.035157 74.222657.679687 102.203125 28.261719 27.535156 73.710938 26.472656 101.609375-1.425781 4.253907-4.257813 4.253907-11.15625 0-15.410156l-17.679687-68.445313-68.441406-17.679687c-4.257813-4.253907-11.15625-4.253907-15.410157 0zm0 0" fill="#596775"/><g fill="#46525e"><path d="m191.988281 275.015625v-.003906l-15.21875-58.925781-11.976562-11.976563-58.929688-15.222656c-4.253906-4.253907-11.152343-4.253907-15.40625 0l-.757812.757812c-4.636719 4.636719-8.492188 9.757813-11.59375 15.191407l70.8125 70.8125c-21.972657 12.277343-49.023438 12.519531-70.894531.183593 3.265624 5.753907 7.371093 11.160157 12.355468 16.015625 23.300782 22.703125 58.285156 25.945313 85.488282 10.75 5.347656-3.121094 10.289062-6.347656 16.121093-12.179687 4.578125-4.574219 3.902344-11.832031 0-15.402344zm0 0"/><path d="m123.363281 368.410156h35.898438c6.605469 0 11.964843-5.355468 11.964843-11.964844v-35.894531c0-6.609375-5.359374-11.964843-11.964843-11.964843h-35.898438c-6.609375 0-11.964843 5.355468-11.964843 11.964843v35.894531c0 6.609376 5.355468 11.964844 11.964843 11.964844zm0 0"/><path d="m.5 257.515625v-35.898437c0-6.609376 5.355469-11.964844 11.964844-11.964844h47.863281c6.609375 0 11.964844 5.355468 11.964844 11.964844v35.898437c0 6.605469-5.355469 11.964844-11.964844 11.964844h-47.863281c-6.609375 0-11.964844-5.359375-11.964844-11.964844zm0 0"/></g><path d="m360.449219 57.757812-42.304688-42.304687-25.382812 25.382813c-19.886719 19.890624-16.558594 16.558593-25.382813 25.382812l33.84375 33.84375c4.671875 4.671875 12.25 4.671875 16.921875 0zm0 0" fill="#596775"/><path d="m360.449219 73.210938c-3.953125 0-7.910157-1.507813-10.925781-4.527344l-42.300782-42.304688c-6.035156-6.035156-6.035156-15.820312 0-21.855468 6.03125-6.03125 15.816406-6.03125 21.851563 0l42.304687 42.304687c6.035156 6.035156 6.035156 15.820313 0 21.855469-3.019531 3.015625-6.976562 4.527344-10.929687 4.527344zm0 0" fill="#46525e"/><path d="m343.53125 121.957031c-10.746094-10.742187-74.230469-74.230469-84.613281-84.609375-4.671875-4.671875-12.246094-4.671875-16.921875 0l-135.375 135.375c-4.671875 4.675782-4.671875 12.25 0 16.921875l84.609375 84.609375c4.675781 4.675782 12.25 4.675782 16.921875 0l135.375-135.375c4.675781-4.671875 4.675781-12.25.003906-16.921875zm0 0" fill="#e9e3d5"/><path d="m343.53125 121.957031c-10.746094-10.742187-74.230469-74.230469-84.613281-84.609375-4.671875-4.671875-12.246094-4.671875-16.921875 0l-13.390625 13.394532 76.535156 76.53125c2.613281 2.613281 1.078125 7.121093-2.640625 7.554687-50.316406 5.882813-90.246094 46.265625-95.417969 96.792969l-29.242187 29.242187 13.390625 13.390625c4.675781 4.671875 12.25 4.671875 16.921875 0 143.394531-143.390625 135.519531-135.472656 136.128906-136.203125 3.902344-4.703125 3.65625-11.6875-.75-16.09375zm0 0" fill="#d3cdbf"/><path d="m315.195312 320.550781c-42.886718 0-77.777343-34.890625-77.777343-77.777343 0-42.886719 34.890625-77.777344 77.777343-77.777344 42.886719 0 77.777344 34.890625 77.777344 77.777344 0 42.886718-34.890625 77.777343-77.777344 77.777343zm0 0" fill="#46525e"/><path d="m340.617188 217.351562c-14.019532-14.019531-36.746094-14.019531-50.765626 0-14.019531 14.019532-14.019531 36.746094 0 50.765626 10.171876 10.167968 15.769532 23.691406 15.769532 38.074218 0 8.683594-2.078125 16.886719-5.746094 24.160156 9.097656 6.605469 18.113281 13.335938 26.089844 21.308594 9.503906 9.125 18.757812 18.375 27.9375 27.628906 14.792968-20.609374 23.511718-45.851562 23.511718-73.097656.003907-33.558594-13.066406-65.109375-36.796874-88.839844zm0 0" fill="#e9e3d5"/><path d="m322.921875 242.773438c0 4.265624-3.460937 7.726562-7.726563 7.726562-4.269531 0-7.726562-3.460938-7.726562-7.726562 0-4.265626 3.457031-7.726563 7.726562-7.726563 4.265626 0 7.726563 3.460937 7.726563 7.726563zm0 0" fill="#46525e"/><path d="m299.640625 320.550781c-66.085937 0-119.65625 53.570313-119.65625 119.65625l119.65625 35.894531 119.65625-35.894531c0-66.085937-53.574219-119.65625-119.65625-119.65625zm0 0" fill="#e9e3d5"/><path d="m419.296875 440.207031c0-1.214843-.023437-2.425781-.0625-3.632812-.007813-.300781-.019531-.601563-.03125-.902344-.039063-.945313-.082031-1.894531-.140625-2.839844-.019531-.335937-.039062-.667969-.0625-1-.078125-1.101562-.167969-2.195312-.273438-3.289062-.007812-.085938-.011718-.175781-.023437-.265625-.125-1.265625-.269531-2.527344-.4375-3.78125-.015625-.128906-.039063-.257813-.042969-.390625-.035156-.722657-.175781-1.4375-.308594-2.148438-.097656-.535156-.179687-1.0625-.265624-1.585937-9.453126-56.644532-58.6875-99.820313-118.011719-99.820313 0 15.902344 10.320312 30.066407 25.546875 34.652344 26.617187 8.015625 48 28.222656 57.644531 54.097656h-198.808594c-2.628906 9.859375-4.035156 20.21875-4.035156 30.90625l103.015625 30.90625h33.277344zm0 0" fill="#d3cdbf"/><path d="m419.296875 440.207031c-12.378906 0-274.542969 0-287.175781 0-13.21875 0-23.929688 10.714844-23.929688 23.929688v23.933593c0 13.214844 10.710938 23.929688 23.929688 23.929688h287.175781c13.214844 0 23.929687-10.714844 23.929687-23.929688v-23.933593c0-13.214844-10.714843-23.929688-23.929687-23.929688zm0 0" fill="#e9e3d5"/><path d="m419.296875 440.207031c-.945313 0-3.347656 0-6.976563 0v40.886719h-304.128906v6.976562c0 13.214844 10.710938 23.929688 23.929688 23.929688h287.175781c13.214844 0 23.929687-10.714844 23.929687-23.929688v-23.933593c0-13.214844-10.714843-23.929688-23.929687-23.929688zm0 0" fill="#d3cdbf"/></svg>