<svg height="512pt" viewBox="0 -17 512 512" width="512pt" xmlns="http://www.w3.org/2000/svg"><path d="m123.628906 393.832031c4.640625 11.394531 15.832032 19.445313 28.871094 19.445313h15.667969v56.335937c0 4.140625 3.355469 7.5 7.5 7.5h189.332031c4.140625 0 7.5-3.359375 7.5-7.5v-75.78125h88.492188c28.125 0 51.007812-22.882812 51.007812-51.007812v-291.816407c0-28.125-22.882812-51.007812-51.007812-51.007812h-314.445313c-4.140625 0-7.5 3.359375-7.5 7.5s3.359375 7.5 7.5 7.5h314.445313c19.855468 0 36.007812 16.152344 36.007812 36.007812v291.816407c0 19.855469-16.152344 36.007812-36.007812 36.007812h-88.492188v-28.386719c0-16.980468-14.210938-31.164062-31.167969-31.164062-9.457031 0-17.945312 4.234375-23.667969 10.90625-5.71875-6.671875-14.207031-10.90625-23.664062-10.90625-9.460938 0-17.945312 4.234375-23.667969 10.90625-5.722656-6.671875-14.207031-10.90625-23.667969-10.90625-5.914062 0-11.449218 1.65625-16.167968 4.527344v-24.976563h142.125c4.144531 0 7.5-3.359375 7.5-7.5 0-4.144531-3.355469-7.5-7.5-7.5h-142.121094c0-7.304687-1.757812-14.265625-6.199219-20.1875-5.839843-7.800781-15.21875-12.53125-24.96875-12.53125-9.730469 0-19.136719 4.738281-24.964843 12.53125-4.433594 5.921875-6.203126 12.882813-6.203126 20.1875h-108.164062v-223.832031h392v223.832031h-49.664062c-4.140626 0-7.5 3.355469-7.5 7.5 0 4.140625 3.359374 7.5 7.5 7.5h57.164062c4.140625 0 7.5-3.359375 7.5-7.5v-238.832031c0-4.144531-3.359375-7.5-7.5-7.5h-407c-4.140625 0-7.5 3.355469-7.5 7.5v238.832031c0 4.140625 3.359375 7.5 7.5 7.5h115.667969v52.113281h-15.667969c-13.730469 0-26.109375 9.449219-29.949219 22.59375-.128906.4375-1.140625 5.292969-1.046875 5.292969h-70.496094c-19.855468 0-36.007812-16.152343-36.007812-36.007812v-291.816407c0-19.855468 16.152344-36.007812 36.007812-36.007812h65.539063c4.144531 0 7.5-3.359375 7.5-7.5s-3.355469-7.5-7.5-7.5h-65.539063c-28.125 0-51.007812 22.882812-51.007812 51.007812v291.816407c0 28.125 22.882812 51.007812 51.007812 51.007812zm59.539063-111.550781c0-8.804688 7.367187-16.167969 16.164062-16.167969 8.675781 0 16.167969 7.503907 16.167969 16.167969v68.164062c0 4.144532 3.359375 7.5 7.5 7.5s7.5-3.355468 7.5-7.5c0-8.804687 7.375-16.164062 16.167969-16.164062 8.785156 0 16.167969 7.382812 16.167969 16.164062 0 4.144532 3.355468 7.5 7.5 7.5 4.140624 0 7.5-3.355468 7.5-7.5 0-8.804687 7.367187-16.164062 16.164062-16.164062 8.773438 0 16.167969 7.402344 16.167969 16.167969 0 4.140625 3.355469 7.5 7.5 7.5 4.140625 0 7.5-3.359375 7.5-7.5 0-8.804688 7.371093-16.167969 16.164062-16.167969 8.699219 0 16.167969 7.367188 16.167969 16.167969v111.664062h-174.332031zm-30.667969 83.664062h15.667969v32.332032s-15.660157 0-15.667969 0c-8.65625 0-16.167969-7.472656-16.167969-16.164063 0-8.914062 7.253907-16.167969 16.167969-16.167969zm0 0"/><path d="m396.25 146.613281c16.957031 0 30.75-13.792969 30.75-30.75s-13.792969-30.75-30.75-30.75c-18.019531 0-32.648438 16.53125-30.527344 34.390625l-60.382812 65.636719c-.363282-.011719-2.902344.019531-3.792969.097656l-58.621094-57.34375c.042969-.671875.074219-1.347656.074219-2.03125 0-16.957031-13.792969-30.75-30.75-30.75s-30.75 13.792969-30.75 30.75c0 .078125.003906.152344.007812.230469l-56.757812 49.351562c-18.289062-2.699218-35.25 11.925782-35.25 30.417969 0 16.957031 13.792969 30.75 30.75 30.75s30.75-13.792969 30.75-30.75c0-.078125-.003906-.152343-.007812-.230469l56.757812-49.351562c1.46875.214844 2.972656.332031 4.5.332031.910156 0 1.8125-.046875 2.703125-.125l58.621094 57.34375c-.042969.671875-.074219 1.347657-.074219 2.03125 0 16.957031 13.792969 30.75 30.75 30.75s30.75-13.792969 30.75-30.75c0-1.230469-.082031-2.445312-.222656-3.640625l60.382812-65.636718c.363282.011718.726563.027343 1.089844.027343zm-276 75c-8.683594 0-15.75-7.066406-15.75-15.75 0-8.683593 7.066406-15.75 15.75-15.75 8.527344 0 15.75 7.199219 15.75 15.75 0 8.683594-7.066406 15.75-15.75 15.75zm26.171875-31.878906c-.03125-.046875-.066406-.089844-.09375-.136719-1.757813-2.78125-3.941406-5.308594-6.472656-7.410156l46.222656-40.195312c.03125.046874.066406.089843.09375.136718 1.742187 2.785156 3.941406 5.308594 6.472656 7.410156zm80.855469-59.300781c-2.046875 6.347656-8.160156 11.179687-15.027344 11.179687-8.535156 0-15.75-7.238281-15.75-15.75 0-8.683593 7.066406-15.75 15.75-15.75 10.203125 0 18.210938 10.433594 15.027344 20.320313zm58.695312 60.71875c-2.652344 1.964844-5 4.375-6.902344 7.074218l-48.636718-47.578124c.035156-.023438.0625-.050782.09375-.074219 2.652344-1.96875 5.003906-4.367188 6.902344-7.074219l48.636718 47.578125c-.035156.023437-.0625.050781-.09375.074219zm18.277344 40.460937c-8.683594 0-15.75-7.066406-15.75-15.75 0-8.503906 7.234375-15.75 15.75-15.75 8.554688 0 15.75 7.199219 15.75 15.75 0 8.683594-7.066406 15.75-15.75 15.75zm24.214844-34.6875c-2.03125-2.601562-4.511719-4.894531-7.269532-6.707031-.03125-.019531-.058593-.042969-.089843-.0625l50.929687-55.355469c.0625.078125.132813.152344.195313.230469 2.027343 2.527344 4.449219 4.765625 7.164062 6.539062zm64.285156-65.734375c-6.859375-1.671875-12.25-8.089844-12.25-15.328125 0-8.683593 7.066406-15.75 15.75-15.75s15.75 7.066407 15.75 15.75c0 9.8125-9.636719 17.667969-19.25 15.328125zm0 0"/></svg>