<?xml version="1.0" standalone="no"?>
<!DOCTYPE svg PUBLIC "-//W3C//DTD SVG 20010904//EN"
 "http://www.w3.org/TR/2001/REC-SVG-20010904/DTD/svg10.dtd">
<svg version="1.0" xmlns="http://www.w3.org/2000/svg"
 width="512.000000pt" height="512.000000pt" viewBox="0 0 512.000000 512.000000"
 preserveAspectRatio="xMidYMid meet">
<metadata>
Created by potrace 1.11, written by Peter Selinger 2001-2013
</metadata>
<g transform="translate(0.000000,512.000000) scale(0.100000,-0.100000)"
fill="#000000" stroke="none">
<path d="M1327 5063 c-34 -32 -86 -80 -116 -108 -30 -27 -81 -75 -113 -106
-33 -31 -72 -67 -86 -80 -33 -28 -246 -224 -412 -379 -15 -14 -51 -47 -81 -75
-30 -27 -104 -96 -165 -153 l-111 -102 2 -1963 c1 -1554 4 -1968 13 -1992 18
-40 68 -83 111 -95 23 -6 705 -10 1914 -10 1574 0 1883 2 1911 14 39 16 83 59
98 95 8 18 12 365 12 1173 l1 1147 231 233 c128 130 242 254 258 281 57 98 75
171 71 287 -3 121 -22 184 -86 280 -94 139 -251 228 -412 233 l-63 1 0 616 c0
611 -1 617 -22 661 -12 24 -38 55 -59 69 l-37 25 -1398 3 -1399 2 -62 -57z"/>
</g>
</svg>
